<?xml version="1.0" encoding="UTF-8" standalone="no"?>
<!DOCTYPE svg PUBLIC "-//W3C//DTD SVG 1.1//EN" "http://www.w3.org/Graphics/SVG/1.1/DTD/svg11.dtd">
<svg width="100%" height="100%" viewBox="0 0 1878 597" version="1.1" xmlns="http://www.w3.org/2000/svg" xmlns:xlink="http://www.w3.org/1999/xlink" xml:space="preserve" xmlns:serif="http://www.serif.com/" style="fill-rule:evenodd;clip-rule:evenodd;stroke-linejoin:round;stroke-miterlimit:2;">
    <g transform="matrix(14.0312,0,0,14.0312,-183.731,-7392.61)">
        <g transform="matrix(1,0,0,1,0,468.689)">
            <path d="M64.928,63.634L64.849,63.36L64.531,62.417C64.474,62.259 64.383,61.995 64.269,61.666C64.087,61.121 64.042,60.995 63.906,60.576C63.838,60.78 63.782,60.916 63.77,60.962L63.497,61.666C63.451,61.757 63.417,61.849 63.325,62.099C63.257,62.28 63.178,62.496 63.075,62.77C62.941,63.11 62.907,63.223 62.872,63.326L62.757,63.634L64.928,63.634ZM59.996,67.009C60.394,65.906 60.895,64.599 61.519,63.1C62.008,61.905 62.361,61.076 63.054,59.508L63.178,59.236L64.758,59.236L64.884,59.519C65.462,60.94 65.837,61.905 66.316,63.167C66.77,64.407 67.167,65.519 67.657,66.974L67.781,67.349L66.167,67.349L66.111,67.146C65.906,66.496 65.69,65.851 65.395,64.974L65.339,64.803L62.314,64.803L62.235,64.997C62.066,65.475 61.656,66.599 61.474,67.146L61.405,67.349L59.883,67.349L59.996,67.009Z" style="fill:rgb(229,55,69);fill-rule:nonzero;"/>
        </g>
        <g transform="matrix(1,0,0,1,0,470.747)">
            <path d="M70.38,64.167C70.641,64.2 70.802,64.2 70.96,64.2C72.415,64.2 73.143,63.542 73.143,62.235C73.143,60.984 72.415,60.326 71.063,60.326C70.847,60.326 70.664,60.326 70.38,60.36L70.38,64.167ZM69.064,59.292L69.243,59.269C69.835,59.224 70.312,59.202 70.789,59.202C72.039,59.202 72.835,59.394 73.483,59.882C74.164,60.382 74.54,61.212 74.54,62.19C74.54,63.213 74.142,64.076 73.392,64.622C72.698,65.122 71.881,65.327 70.562,65.327C70.073,65.327 69.619,65.304 69.064,65.259L69.064,59.292Z" style="fill:rgb(229,55,69);fill-rule:nonzero;"/>
        </g>
        <g transform="matrix(1,0,0,1,0,470.756)">
            <path d="M75.981,64.988C76.015,64.34 76.049,63.679 76.094,62.943C76.152,62.192 76.21,61.408 76.253,60.907L76.378,59.464L76.401,59.237L77.618,59.237C78.242,59.237 78.322,59.316 78.732,60.42C78.856,60.759 79.095,61.408 79.265,61.907C79.617,62.943 79.71,63.295 79.788,64.124C79.868,63.306 79.96,62.943 80.31,61.907C80.459,61.475 80.697,60.817 80.844,60.42C81.255,59.328 81.335,59.237 81.959,59.237L83.119,59.237L83.14,59.464L83.266,60.907C83.311,61.42 83.391,62.409 83.448,63.214C83.482,63.725 83.505,64.17 83.539,64.988L83.55,65.283L82.232,65.283L82.232,65.135C82.22,64.908 82.209,64.533 82.187,64.009C82.153,63.442 82.14,63.01 82.119,62.737L82.039,61.385L82.039,61.021C82.039,60.793 82.05,60.601 82.085,60.18L82.06,60.18C81.936,60.783 81.959,60.738 81.481,61.976C81.244,62.59 80.765,63.976 80.402,65.045L80.323,65.283L79.151,65.283L79.072,65.045L78.776,64.146C78.719,63.987 78.674,63.85 78.548,63.5C78.277,62.716 78.119,62.283 78.003,61.976C77.527,60.749 77.549,60.806 77.425,60.18L77.4,60.18C77.437,60.601 77.447,60.783 77.447,61.021C77.447,61.157 77.447,61.283 77.437,61.385L77.357,62.737C77.322,63.363 77.265,64.625 77.253,65.135L77.253,65.283L75.97,65.283L75.981,64.988Z" style="fill:rgb(229,55,69);fill-rule:nonzero;"/>
        </g>
        <g transform="matrix(1,0,0,1,0,470.757)">
            <rect x="85.388" y="59.236" width="1.316" height="6.046" style="fill:rgb(229,55,69);"/>
        </g>
        <g transform="matrix(1,0,0,1,0,470.756)">
            <path d="M88.683,59.237L89.75,59.237C90.193,59.237 90.331,59.304 90.535,59.634L92.603,62.85C92.842,63.214 92.978,63.533 93.218,64.272C93.081,63.556 93.046,63.225 93.046,62.806L93.046,59.237L94.274,59.237L94.274,65.283L93.205,65.283C92.763,65.283 92.625,65.215 92.42,64.885L90.353,61.67C90.114,61.304 89.978,60.988 89.739,60.249C89.874,60.954 89.91,61.293 89.91,61.716L89.91,65.283L88.683,65.283L88.683,59.237Z" style="fill:rgb(229,55,69);fill-rule:nonzero;"/>
        </g>
        <g transform="matrix(1,0,0,1,0,470.757)">
            <rect x="96.25" y="59.236" width="1.317" height="6.046" style="fill:rgb(229,55,69);"/>
        </g>
        <g transform="matrix(1,0,0,1,0,470.801)">
            <path d="M99.202,63.634C99.702,64.032 100.339,64.261 100.965,64.261C101.578,64.261 101.986,64.01 101.986,63.634C101.986,63.511 101.93,63.363 101.838,63.271C101.68,63.101 101.543,63.021 100.827,62.692C100.18,62.386 99.896,62.215 99.669,61.988C99.384,61.726 99.225,61.318 99.225,60.874C99.225,59.817 100.157,59.089 101.51,59.089C102.135,59.089 102.635,59.203 103.213,59.499L103.213,60.738C102.714,60.396 102.169,60.216 101.645,60.216C101.043,60.216 100.623,60.477 100.623,60.84C100.623,60.953 100.68,61.09 100.76,61.157C100.861,61.248 100.987,61.327 101.145,61.407C101.316,61.488 101.543,61.578 101.816,61.703C102.464,61.999 102.748,62.192 102.998,62.465C103.248,62.761 103.384,63.136 103.384,63.556C103.384,64.681 102.486,65.385 101.043,65.385C100.361,65.385 99.76,65.238 99.202,64.919L99.202,63.634Z" style="fill:rgb(229,55,69);fill-rule:nonzero;"/>
        </g>
        <g transform="matrix(1,0,0,1,0,470.757)">
            <path d="M106.189,60.35L104.201,60.35L104.201,59.236L109.497,59.236L109.497,60.35L107.507,60.35L107.507,65.282L106.189,65.282L106.189,60.35Z" style="fill:rgb(229,55,69);fill-rule:nonzero;"/>
        </g>
        <g transform="matrix(1,0,0,1,0,470.713)">
            <path d="M112.131,62.019L112.234,62.019C112.381,62.019 112.494,62.053 112.597,62.053C113.529,62.053 113.948,61.769 113.948,61.167C113.948,60.565 113.54,60.247 112.732,60.247C112.539,60.247 112.392,60.257 112.131,60.268L112.131,62.019ZM110.812,59.302L110.948,59.291C111.54,59.257 112.21,59.236 112.642,59.236C113.54,59.236 114.108,59.359 114.562,59.656C115.017,59.951 115.277,60.473 115.277,61.086C115.277,61.906 114.915,62.427 114.118,62.769L114.222,62.893L114.609,63.393C115.164,64.098 115.948,64.974 116.335,65.326L114.573,65.326C114.472,65.2 114.461,65.19 114.278,64.974C113.938,64.564 113.54,64.052 113.244,63.632L112.858,63.076L112.8,62.998C112.699,63.007 112.631,63.007 112.573,63.007C112.528,63.007 112.425,63.007 112.267,62.998L112.131,62.998L112.131,65.326L110.812,65.326L110.812,59.302Z" style="fill:rgb(229,55,69);fill-rule:nonzero;"/>
        </g>
        <g transform="matrix(1,0,0,1,0,470.755)">
            <path d="M120.777,62.669L120.719,62.466C120.63,62.192 120.538,61.953 120.469,61.738L120.265,61.147C120.106,60.691 120.095,60.681 120.026,60.488C119.993,60.578 119.969,60.647 119.959,60.67L119.756,61.17L119.55,61.727L119.277,62.442C119.277,62.442 119.232,62.545 119.185,62.669L120.777,62.669ZM116.959,65.033C117.254,64.214 117.64,63.238 118.107,62.113C118.481,61.215 118.72,60.658 119.265,59.441L119.356,59.237L120.8,59.237L120.89,59.453C121.289,60.397 121.607,61.203 121.971,62.158C122.335,63.135 122.72,64.214 122.994,64.999L123.084,65.283L121.675,65.283L121.629,65.136C121.515,64.795 121.436,64.533 121.379,64.362L121.197,63.828L121.152,63.704L118.777,63.704L118.72,63.852C118.527,64.362 118.38,64.76 118.255,65.136L118.197,65.283L116.868,65.283L116.959,65.033Z" style="fill:rgb(229,55,69);fill-rule:nonzero;"/>
        </g>
        <g transform="matrix(1,0,0,1,0,470.79)">
            <path d="M128.968,64.987C128.344,65.259 127.798,65.373 127.116,65.373C125.048,65.373 123.717,64.203 123.717,62.362C123.717,60.419 125.128,59.111 127.23,59.111C127.878,59.111 128.355,59.214 128.968,59.474L128.968,60.656C128.423,60.35 127.98,60.237 127.377,60.237C125.99,60.237 125.115,61.008 125.115,62.236C125.115,63.453 125.969,64.191 127.355,64.191C127.957,64.191 128.434,64.078 128.968,63.793L128.968,64.987Z" style="fill:rgb(229,55,69);fill-rule:nonzero;"/>
        </g>
        <g transform="matrix(1,0,0,1,0,470.757)">
            <rect x="130.591" y="59.236" width="1.318" height="6.046" style="fill:rgb(229,55,69);"/>
        </g>
        <g transform="matrix(1,0,0,1,0,467.768)">
            <path d="M137.659,59.1L138.842,59.213L136.738,61.543L135.829,61.396L137.659,59.1ZM136.603,67.283C137.67,67.283 138.297,66.544 138.297,65.259C138.297,63.987 137.67,63.249 136.603,63.249C135.534,63.249 134.908,63.987 134.908,65.259C134.908,66.544 135.534,67.283 136.603,67.283M136.637,62.122C138.523,62.122 139.694,63.305 139.694,65.214C139.694,67.169 138.477,68.408 136.568,68.408C134.681,68.408 133.51,67.214 133.51,65.317C133.51,63.35 134.726,62.122 136.637,62.122" style="fill:rgb(229,55,69);fill-rule:nonzero;"/>
        </g>
        <g transform="matrix(1,0,0,1,0,470.756)">
            <path d="M141.293,59.237L142.361,59.237C142.806,59.237 142.939,59.304 143.146,59.634L145.214,62.85C145.453,63.214 145.589,63.533 145.829,64.272C145.69,63.556 145.658,63.225 145.658,62.806L145.658,59.237L146.885,59.237L146.885,65.283L145.815,65.283C145.373,65.283 145.235,65.215 145.033,64.885L142.963,61.67C142.724,61.304 142.588,60.988 142.351,60.249C142.486,60.954 142.522,61.293 142.522,61.716L142.522,65.283L141.293,65.283L141.293,59.237Z" style="fill:rgb(229,55,69);fill-rule:nonzero;"/>
        </g>
        <g transform="matrix(1,0,0,1,0,494.147)">
            <path d="M61.417,52.064C61.623,52.09 61.748,52.09 61.873,52.09C63.02,52.09 63.592,51.571 63.592,50.543C63.592,49.557 63.02,49.038 61.954,49.038C61.783,49.038 61.641,49.038 61.417,49.064L61.417,52.064ZM60.379,48.223L60.522,48.205C60.986,48.169 61.363,48.152 61.739,48.152C62.725,48.152 63.35,48.304 63.861,48.689C64.398,49.082 64.694,49.736 64.694,50.505C64.694,51.312 64.379,51.993 63.79,52.422C63.244,52.816 62.599,52.977 61.56,52.977C61.175,52.977 60.817,52.959 60.379,52.923L60.379,48.223Z" style="fill:rgb(229,55,69);fill-rule:nonzero;"/>
        </g>
        <g transform="matrix(1,0,0,1,0,494.173)">
            <path d="M65.933,48.178L69.046,48.178L69.046,49.055L66.97,49.055L66.97,50.05L68.976,50.05L68.976,50.928L66.97,50.928L66.97,52.047L69.1,52.047L69.1,52.924L65.933,52.924L65.933,48.178Z" style="fill:rgb(229,55,69);fill-rule:nonzero;"/>
        </g>
        <g transform="matrix(1,0,0,1,0,490.805)">
            <path d="M77.286,52.575L77.208,52.304L76.89,51.358C76.833,51.2 76.741,50.939 76.629,50.608C76.447,50.063 76.401,49.939 76.265,49.517C76.196,49.723 76.14,49.86 76.128,49.904L75.855,50.608C75.809,50.701 75.775,50.792 75.685,51.04C75.617,51.223 75.538,51.437 75.435,51.712C75.299,52.052 75.265,52.167 75.23,52.268L75.117,52.575L77.286,52.575ZM72.355,55.95C72.753,54.848 73.253,53.542 73.879,52.04C74.366,50.848 74.72,50.018 75.412,48.449L75.538,48.178L77.117,48.178L77.242,48.462C77.821,49.882 78.195,50.848 78.674,52.109C79.129,53.346 79.525,54.462 80.015,55.917L80.14,56.292L78.526,56.292L78.47,56.087C78.264,55.439 78.048,54.79 77.754,53.917L77.697,53.745L74.674,53.745L74.594,53.939C74.424,54.416 74.014,55.542 73.832,56.087L73.764,56.292L72.241,56.292L72.355,55.95Z" style="fill:rgb(229,55,69);fill-rule:nonzero;"/>
        </g>
        <g transform="matrix(1,0,0,1,0,492.827)">
            <path d="M82.739,50.962L82.841,50.962C82.989,50.962 83.104,50.996 83.205,50.996C84.136,50.996 84.558,50.712 84.558,50.111C84.558,49.509 84.147,49.19 83.342,49.19C83.148,49.19 83,49.202 82.739,49.214L82.739,50.962ZM81.422,48.247L81.558,48.236C82.148,48.202 82.818,48.178 83.25,48.178C84.147,48.178 84.717,48.305 85.172,48.6C85.625,48.895 85.887,49.416 85.887,50.03C85.887,50.851 85.523,51.372 84.728,51.713L84.83,51.838L85.216,52.337C85.774,53.044 86.558,53.917 86.944,54.271L85.182,54.271C85.08,54.145 85.068,54.135 84.887,53.917C84.547,53.509 84.147,52.997 83.852,52.577L83.468,52.02L83.41,51.941C83.306,51.952 83.239,51.952 83.183,51.952C83.136,51.952 83.036,51.952 82.876,51.941L82.739,51.941L82.739,54.271L81.422,54.271L81.422,48.247Z" style="fill:rgb(229,55,69);fill-rule:nonzero;"/>
        </g>
        <g transform="matrix(1,0,0,1,0,492.908)">
            <path d="M92.545,53.927C91.919,54.199 91.373,54.315 90.692,54.315C88.624,54.315 87.292,53.145 87.292,51.303C87.292,49.36 88.703,48.053 90.805,48.053C91.453,48.053 91.931,48.156 92.545,48.416L92.545,49.599C91.998,49.291 91.556,49.177 90.952,49.177C89.566,49.177 88.692,49.949 88.692,51.178C88.692,52.393 89.544,53.132 90.931,53.132C91.532,53.132 92.011,53.019 92.545,52.735L92.545,53.927Z" style="fill:rgb(229,55,69);fill-rule:nonzero;"/>
        </g>
        <g transform="matrix(1,0,0,1,0,492.872)">
            <path d="M94.168,48.178L95.486,48.178L95.486,50.566L98.122,50.566L98.122,48.178L99.441,48.178L99.441,54.225L98.122,54.225L98.122,51.678L95.486,51.678L95.486,54.225L94.168,54.225L94.168,48.178Z" style="fill:rgb(229,55,69);fill-rule:nonzero;"/>
        </g>
        <g transform="matrix(1,0,0,1,0,492.872)">
            <rect x="101.415" y="48.178" width="1.319" height="6.047" style="fill:rgb(229,55,69);"/>
        </g>
        <g transform="matrix(1,0,0,1,0,492.872)">
            <path d="M105.325,48.178L105.369,48.315C105.712,49.486 106.312,51.28 106.846,52.77L106.892,52.895L106.937,52.758L107.29,51.86C107.677,50.872 108.336,49.065 108.585,48.315L108.621,48.178L110.04,48.178L109.949,48.428C109.678,49.19 109.267,50.224 108.824,51.338C108.45,52.248 108.256,52.691 107.677,54.02L107.586,54.225L106.109,54.225L106.017,54.008C105.596,52.975 105.336,52.338 104.949,51.292C104.54,50.201 104.232,49.338 103.937,48.451L103.847,48.178L105.325,48.178Z" style="fill:rgb(229,55,69);fill-rule:nonzero;"/>
        </g>
        <g transform="matrix(1,0,0,1,0,492.907)">
            <path d="M113.754,53.201C114.821,53.201 115.447,52.462 115.447,51.179C115.447,49.907 114.821,49.167 113.754,49.167C112.686,49.167 112.06,49.907 112.06,51.179C112.06,52.462 112.686,53.201 113.754,53.201M113.788,48.042C115.675,48.042 116.846,49.223 116.846,51.134C116.846,53.087 115.629,54.326 113.72,54.326C111.833,54.326 110.661,53.133 110.661,51.235C110.661,49.268 111.878,48.042 113.788,48.042" style="fill:rgb(229,55,69);fill-rule:nonzero;"/>
        </g>
        <g transform="matrix(1,0,0,1,0,492.919)">
            <path d="M118.104,52.576C118.604,52.973 119.241,53.201 119.866,53.201C120.479,53.201 120.887,52.952 120.887,52.576C120.887,52.45 120.832,52.303 120.74,52.212C120.582,52.042 120.445,51.963 119.728,51.632C119.082,51.326 118.796,51.154 118.57,50.928C118.285,50.667 118.126,50.257 118.126,49.814C118.126,48.758 119.059,48.03 120.411,48.03C121.035,48.03 121.537,48.144 122.115,48.439L122.115,49.678C121.616,49.337 121.07,49.155 120.547,49.155C119.945,49.155 119.525,49.417 119.525,49.78C119.525,49.895 119.581,50.03 119.66,50.098C119.763,50.19 119.888,50.269 120.046,50.348C120.218,50.429 120.445,50.519 120.718,50.643C121.366,50.938 121.65,51.133 121.9,51.405C122.15,51.7 122.286,52.075 122.286,52.497C122.286,53.621 121.388,54.327 119.945,54.327C119.262,54.327 118.66,54.179 118.104,53.86L118.104,52.576Z" style="fill:rgb(229,55,69);fill-rule:nonzero;"/>
        </g>
        <g transform="matrix(1,0,0,1,0,516.269)">
            <path d="M61.578,39.968L61.498,39.86C60.916,39.064 60.351,38.204 59.796,37.247L59.717,37.121L60.951,37.121L60.978,37.175C61.236,37.641 61.407,37.917 61.748,38.482C61.98,38.867 62.034,38.947 62.133,39.1L62.186,39.029C62.544,38.527 63.091,37.659 63.368,37.175L63.404,37.121L64.577,37.121L64.506,37.238C64.014,38.025 63.332,39.029 62.706,39.853L62.617,39.968L62.617,41.884L61.578,41.884L61.578,39.968Z" style="fill:rgb(229,55,69);fill-rule:nonzero;"/>
        </g>
        <g transform="matrix(1,0,0,1,0,512.908)">
            <path d="M71.725,41.21L74.828,41.21L74.828,45.018C73.861,45.257 73.031,45.359 72.179,45.359C69.316,45.359 67.611,43.859 67.611,41.336C67.611,38.734 69.476,37.007 72.283,37.007C73.168,37.007 73.872,37.142 74.804,37.507L74.804,38.848C73.987,38.427 73.237,38.244 72.372,38.244C70.385,38.244 69.156,39.405 69.156,41.278C69.156,43.075 70.317,44.12 72.283,44.12C72.668,44.12 73.021,44.087 73.406,43.984L73.406,42.439L71.725,42.439L71.725,41.21Z" style="fill:rgb(229,55,69);fill-rule:nonzero;"/>
        </g>
        <g transform="matrix(1,0,0,1,0,515.008)">
            <path d="M76.688,37.122L80.643,37.122L80.643,38.236L78.007,38.236L78.007,39.497L80.553,39.497L80.553,40.611L78.007,40.611L78.007,42.032L80.711,42.032L80.711,43.145L76.688,43.145L76.688,37.122Z" style="fill:rgb(229,55,69);fill-rule:nonzero;"/>
        </g>
        <g transform="matrix(1,0,0,1,0,515.033)">
            <path d="M82.016,41.518C82.516,41.915 83.152,42.142 83.778,42.142C84.391,42.142 84.8,41.894 84.8,41.518C84.8,41.394 84.744,41.246 84.654,41.155C84.494,40.984 84.357,40.905 83.641,40.576C82.994,40.27 82.71,40.098 82.482,39.87C82.198,39.609 82.038,39.201 82.038,38.756C82.038,37.7 82.97,36.973 84.323,36.973C84.949,36.973 85.45,37.086 86.027,37.381L86.027,38.621C85.529,38.28 84.984,38.098 84.459,38.098C83.857,38.098 83.437,38.359 83.437,38.722C83.437,38.835 83.494,38.972 83.573,39.042C83.677,39.132 83.8,39.211 83.959,39.292C84.13,39.37 84.357,39.461 84.63,39.587C85.278,39.882 85.562,40.075 85.813,40.347C86.063,40.644 86.198,41.018 86.198,41.439C86.198,42.564 85.3,43.269 83.857,43.269C83.175,43.269 82.572,43.121 82.016,42.803L82.016,41.518Z" style="fill:rgb(229,55,69);fill-rule:nonzero;"/>
        </g>
        <g transform="matrix(1,0,0,1,0,514.988)">
            <path d="M89.003,38.234L87.015,38.234L87.015,37.121L92.311,37.121L92.311,38.234L90.322,38.234L90.322,43.166L89.003,43.166L89.003,38.234Z" style="fill:rgb(229,55,69);fill-rule:nonzero;"/>
        </g>
        <g transform="matrix(1,0,0,1,0,514.988)">
            <rect x="93.627" y="37.121" width="1.318" height="6.045" style="fill:rgb(229,55,69);"/>
        </g>
        <g transform="matrix(1,0,0,1,0,511.999)">
            <path d="M100.694,36.984L101.877,37.098L99.774,39.426L98.864,39.28L100.694,36.984ZM99.638,45.167C100.705,45.167 101.331,44.428 101.331,43.144C101.331,41.87 100.705,41.132 99.638,41.132C98.569,41.132 97.944,41.87 97.944,43.144C97.944,44.428 98.569,45.167 99.638,45.167M99.673,40.007C101.558,40.007 102.729,41.188 102.729,43.098C102.729,45.052 101.513,46.292 99.604,46.292C97.716,46.292 96.547,45.098 96.547,43.2C96.547,41.235 97.763,40.007 99.673,40.007" style="fill:rgb(229,55,69);fill-rule:nonzero;"/>
        </g>
        <g transform="matrix(1,0,0,1,0,514.987)">
            <path d="M104.329,37.121L105.396,37.121C105.841,37.121 105.977,37.189 106.181,37.518L108.25,40.734C108.487,41.098 108.624,41.416 108.863,42.156C108.726,41.439 108.692,41.109 108.692,40.689L108.692,37.121L109.92,37.121L109.92,43.166L108.851,43.166C108.41,43.166 108.273,43.098 108.068,42.769L105.999,39.553C105.762,39.188 105.625,38.871 105.386,38.132C105.522,38.836 105.556,39.178 105.556,39.598L105.556,43.166L104.329,43.166L104.329,37.121Z" style="fill:rgb(229,55,69);fill-rule:nonzero;"/>
        </g>
        <g transform="matrix(1,0,0,1,0,535.023)">
            <path d="M61.975,32.949C62.416,32.985 62.657,32.996 62.928,32.996C64.02,32.996 64.758,32.779 65.303,32.291C65.837,31.813 66.134,31.029 66.134,30.087C66.134,28.234 65.077,27.256 63.054,27.256C62.826,27.256 62.531,27.268 62.224,27.279L61.975,27.303L61.975,32.949ZM60.553,26.109L60.803,26.097C61.656,26.041 62.166,26.018 62.746,26.018C64.418,26.018 65.497,26.291 66.338,26.927C67.202,27.597 67.678,28.678 67.678,30.007C67.678,31.404 67.157,32.563 66.213,33.279C65.339,33.938 64.223,34.234 62.578,34.234C61.975,34.234 61.145,34.201 60.553,34.166L60.553,26.109Z" style="fill:rgb(229,55,69);fill-rule:nonzero;"/>
        </g>
        <g transform="matrix(1,0,0,1,0,537.137)">
            <path d="M72.041,31.087C73.108,31.087 73.734,30.348 73.734,29.063C73.734,27.79 73.108,27.051 72.041,27.051C70.973,27.051 70.347,27.79 70.347,29.063C70.347,30.348 70.973,31.087 72.041,31.087M72.074,25.927C73.961,25.927 75.132,27.109 75.132,29.018C75.132,30.972 73.915,32.211 72.006,32.211C70.12,32.211 68.949,31.019 68.949,29.12C68.949,27.153 70.165,25.927 72.074,25.927" style="fill:rgb(229,55,69);fill-rule:nonzero;"/>
        </g>
        <g transform="matrix(1,0,0,1,0,537.136)">
            <path d="M81.572,31.815C80.949,32.088 80.402,32.202 79.72,32.202C77.653,32.202 76.322,31.031 76.322,29.19C76.322,27.247 77.732,25.938 79.834,25.938C80.482,25.938 80.96,26.043 81.572,26.303L81.572,27.484C81.027,27.178 80.584,27.065 79.981,27.065C78.595,27.065 77.72,27.837 77.72,29.064C77.72,30.281 78.574,31.02 79.96,31.02C80.562,31.02 81.039,30.905 81.572,30.623L81.572,31.815Z" style="fill:rgb(229,55,69);fill-rule:nonzero;"/>
        </g>
        <g transform="matrix(1,0,0,1,0,537.24)">
            <path d="M84.434,25.927L84.434,29.461C84.434,30.074 84.501,30.369 84.695,30.597C84.9,30.859 85.251,30.985 85.717,30.985C86.228,30.985 86.604,30.824 86.798,30.53C86.947,30.314 86.991,30.018 86.991,29.461L86.991,25.927L88.31,25.927L88.31,29.552C88.31,30.449 88.161,30.972 87.788,31.382C87.354,31.869 86.65,32.109 85.717,32.109C84.774,32.109 84.07,31.869 83.638,31.382C83.263,30.972 83.116,30.461 83.116,29.552L83.116,25.927L84.434,25.927Z" style="fill:rgb(229,55,69);fill-rule:nonzero;"/>
        </g>
        <g transform="matrix(1,0,0,1,0,537.103)">
            <path d="M90.079,31.815C90.114,31.166 90.148,30.506 90.193,29.768C90.251,29.018 90.307,28.235 90.353,27.733L90.477,26.291L90.501,26.064L91.717,26.064C92.342,26.064 92.421,26.142 92.83,27.246C92.955,27.586 93.194,28.235 93.363,28.734C93.717,29.768 93.808,30.121 93.887,30.95C93.967,30.132 94.058,29.768 94.411,28.734C94.558,28.302 94.796,27.643 94.945,27.246C95.353,26.155 95.433,26.064 96.057,26.064L97.218,26.064L97.239,26.291L97.365,27.733C97.41,28.246 97.489,29.234 97.547,30.042C97.581,30.552 97.602,30.996 97.637,31.815L97.649,32.109L96.331,32.109L96.331,31.961C96.32,31.735 96.308,31.36 96.285,30.837C96.252,30.268 96.24,29.836 96.218,29.563L96.137,28.211L96.137,27.848C96.137,27.622 96.148,27.427 96.183,27.008L96.16,27.008C96.035,27.61 96.057,27.564 95.58,28.802C95.342,29.416 94.864,30.802 94.501,31.872L94.421,32.109L93.252,32.109L93.172,31.872L92.876,30.974C92.818,30.814 92.773,30.677 92.649,30.325C92.375,29.542 92.217,29.108 92.104,28.802C91.626,27.575 91.648,27.632 91.522,27.008L91.501,27.008C91.533,27.427 91.546,27.61 91.546,27.848C91.546,27.983 91.546,28.109 91.533,28.211L91.454,29.563C91.422,30.19 91.364,31.451 91.353,31.961L91.353,32.109L90.068,32.109L90.079,31.815Z" style="fill:rgb(229,55,69);fill-rule:nonzero;"/>
        </g>
        <g transform="matrix(1,0,0,1,0,537.125)">
            <path d="M99.486,26.064L103.441,26.064L103.441,27.178L100.805,27.178L100.805,28.439L103.351,28.439L103.351,29.553L100.805,29.553L100.805,30.973L103.509,30.973L103.509,32.086L99.486,32.086L99.486,26.064Z" style="fill:rgb(229,55,69);fill-rule:nonzero;"/>
        </g>
        <g transform="matrix(1,0,0,1,0,537.103)">
            <path d="M105.234,26.064L106.302,26.064C106.746,26.064 106.882,26.132 107.088,26.461L109.156,29.678C109.394,30.042 109.531,30.361 109.77,31.097C109.633,30.382 109.599,30.053 109.599,29.631L109.599,26.064L110.826,26.064L110.826,32.109L109.757,32.109C109.315,32.109 109.178,32.041 108.972,31.711L106.905,28.495C106.666,28.131 106.529,27.814 106.292,27.076C106.428,27.78 106.463,28.121 106.463,28.542L106.463,32.109L105.234,32.109L105.234,26.064Z" style="fill:rgb(229,55,69);fill-rule:nonzero;"/>
        </g>
        <g transform="matrix(1,0,0,1,0,537.103)">
            <path d="M113.927,27.176L111.937,27.176L111.937,26.063L117.234,26.063L117.234,27.176L115.243,27.176L115.243,32.108L113.927,32.108L113.927,27.176Z" style="fill:rgb(229,55,69);fill-rule:nonzero;"/>
        </g>
        <g transform="matrix(1,0,0,1,0,537.102)">
            <path d="M121.039,29.495L120.982,29.292C120.892,29.018 120.801,28.781 120.732,28.563L120.528,27.974C120.369,27.517 120.357,27.508 120.289,27.314C120.254,27.405 120.232,27.474 120.221,27.496L120.017,27.996L119.811,28.553L119.538,29.268C119.538,29.268 119.493,29.371 119.448,29.495L121.039,29.495ZM117.221,31.859C117.516,31.041 117.902,30.064 118.369,28.939C118.743,28.041 118.982,27.483 119.527,26.268L119.619,26.064L121.062,26.064L121.152,26.279C121.55,27.224 121.868,28.03 122.231,28.985C122.596,29.962 122.982,31.041 123.254,31.826L123.348,32.109L121.936,32.109L121.892,31.962C121.777,31.622 121.697,31.36 121.642,31.19L121.46,30.656L121.414,30.53L119.039,30.53L118.982,30.678C118.789,31.19 118.641,31.588 118.516,31.962L118.459,32.109L117.129,32.109L117.221,31.859Z" style="fill:rgb(229,55,69);fill-rule:nonzero;"/>
        </g>
        <g transform="matrix(1,0,0,1,0,537.103)">
            <path d="M124.583,26.064L125.901,26.064L125.901,30.996L128.604,30.996L128.604,32.109L124.583,32.109L124.583,26.064Z" style="fill:rgb(229,55,69);fill-rule:nonzero;"/>
        </g>
        <g transform="matrix(1,0,0,1,0,508.456)">
            <rect x="47.359" y="28.649" width="4.395" height="29.521" style="fill:rgb(229,55,69);"/>
        </g>
        <g transform="matrix(1,0,0,1,0,508.456)">
            <rect x="40.949" y="28.649" width="4.681" height="29.521" style="fill:rgb(229,55,69);"/>
        </g>
        <g transform="matrix(1,0,0,1,0,501.916)">
            <rect x="25.218" y="28.649" width="7.428" height="36.061" style="fill:rgb(229,55,69);"/>
        </g>
        <g transform="matrix(1,0,0,1,0,501.918)">
            <path d="M51.753,33.459L39.218,33.459L39.218,48.764L34.378,48.764L34.378,28.648L51.753,28.648L51.753,33.459ZM51.753,64.709L47.358,64.709L47.358,35.188L51.753,35.188L51.753,64.709ZM45.629,64.709L40.948,64.709L40.948,35.188L45.629,35.188L45.629,64.709ZM39.218,64.709L34.378,64.709L34.378,50.494L39.218,50.494L39.218,64.709ZM32.646,64.709L25.218,64.709L25.218,28.648L32.646,28.648L32.646,64.709ZM23.485,36.443L15.69,36.443L15.69,28.648L23.485,28.648L23.485,36.443ZM23.485,64.709L15.69,64.709L15.69,38.175L23.485,38.175L23.485,64.709ZM54.35,26.051L13.094,26.051L13.094,67.307L54.35,67.307L54.35,26.051Z" style="fill-rule:nonzero;"/>
        </g>
    </g>
</svg>
