<?xml version="1.0" encoding="UTF-8" standalone="no"?>
<!DOCTYPE svg PUBLIC "-//W3C//DTD SVG 1.1//EN" "http://www.w3.org/Graphics/SVG/1.1/DTD/svg11.dtd">
<svg width="100%" height="100%" viewBox="0 0 3000 3000" version="1.1" xmlns="http://www.w3.org/2000/svg" xmlns:xlink="http://www.w3.org/1999/xlink" xml:space="preserve" xmlns:serif="http://www.serif.com/" style="fill-rule:evenodd;clip-rule:evenodd;stroke-linejoin:round;stroke-miterlimit:2;">
    <g transform="matrix(0.638564,0,0,0.638564,-3039.73,-126.816)">
        <g transform="matrix(3.60844,-2.08333,3.60844,2.08333,5307.63,1512.17)">
            <rect x="0" y="0" width="500" height="500" style="fill:rgb(230,56,70);"/>
        </g>
        <g transform="matrix(4.16667,0,0,4.16667,5307.63,470.507)">
            <path d="M220.691,305.584L162.701,288.808L168.313,285.568L197.433,294.1L218.571,300.76L218.882,300.58L207.472,288.304L192.756,271.456L198.181,268.324L227.051,301.912L220.691,305.584ZM246.715,290.559L242.351,288.039L248.461,284.511L213.668,264.423L207.557,267.951L203.193,265.431L220.652,255.351L225.016,257.871L218.906,261.399L253.699,281.487L259.81,277.959L264.175,280.479L246.715,290.559ZM304.562,258.025C299.034,261.217 292.861,262.621 286.043,262.237C279.184,261.829 272.097,259.513 264.781,255.289C257.464,251.065 253.391,246.937 252.559,242.905C251.686,238.849 254.014,235.225 259.543,232.033C263.201,229.921 267.088,228.637 271.203,228.181C275.36,227.701 279.642,227.941 284.048,228.901L282.364,232.825C279.247,232.033 276.129,231.769 273.011,232.033C269.852,232.273 266.921,233.173 264.219,234.733C262.349,235.813 261.019,236.989 260.229,238.261C259.48,239.509 259.252,240.817 259.543,242.185C259.834,243.505 260.624,244.849 261.912,246.217C263.159,247.561 264.905,248.881 267.15,250.177L273.635,253.921C278.124,256.513 282.676,257.941 287.29,258.205C291.904,258.469 296.103,257.509 299.886,255.325C302.671,253.717 304.292,251.965 304.749,250.069C305.165,248.149 304.625,246.253 303.128,244.381L309.925,243.481C311.629,246.049 312.086,248.593 311.297,251.113C310.465,253.609 308.22,255.913 304.562,258.025ZM339.611,237.789C337.449,239.037 335.08,239.949 332.503,240.525C329.925,241.101 327.265,241.341 324.521,241.245C321.778,241.101 319.034,240.645 316.291,239.877C313.506,239.085 310.824,237.945 308.247,236.457C305.711,234.993 303.758,233.457 302.386,231.849C301.014,230.241 300.224,228.657 300.016,227.097C299.808,225.489 300.203,223.941 301.201,222.453C302.199,220.965 303.778,219.597 305.94,218.35C308.102,217.101 310.45,216.201 312.986,215.649C315.563,215.073 318.244,214.845 321.03,214.965C323.773,215.061 326.537,215.505 329.323,216.297C332.108,217.089 334.768,218.217 337.304,219.681C339.881,221.169 341.856,222.717 343.228,224.325C344.558,225.909 345.327,227.505 345.535,229.113C345.701,230.697 345.285,232.233 344.288,233.721C343.331,235.185 341.773,236.541 339.611,237.789ZM335.184,235.233C337.886,233.673 339.258,231.921 339.299,229.977C339.341,228.033 337.657,226.077 334.249,224.109L329.634,221.445C326.226,219.477 322.838,218.505 319.471,218.529C316.104,218.553 313.069,219.345 310.367,220.905C307.665,222.465 306.293,224.217 306.252,226.161C306.21,228.105 307.894,230.061 311.302,232.029L315.917,234.693C319.325,236.661 322.713,237.633 326.08,237.609C329.447,237.585 332.482,236.793 335.184,235.233ZM366.895,221.173C365.149,222.181 363.341,222.673 361.47,222.649C359.6,222.577 357.916,222.109 356.42,221.245L315.453,197.593L320.442,194.713L362.219,218.833L366.958,216.097L371.322,218.617L366.895,221.173ZM391.491,207.836C389.33,209.084 386.96,209.996 384.383,210.572C381.806,211.148 379.145,211.388 376.402,211.292C373.658,211.148 370.915,210.692 368.171,209.924C365.386,209.132 362.705,207.992 360.127,206.504C357.592,205.04 355.638,203.504 354.266,201.896C352.894,200.288 352.105,198.704 351.897,197.144C351.689,195.536 352.084,193.988 353.081,192.5C354.079,191.012 355.659,189.644 357.82,188.396C359.982,187.148 362.331,186.248 364.866,185.696C367.444,185.12 370.125,184.892 372.91,185.012C375.653,185.108 378.418,185.552 381.203,186.344C383.988,187.136 386.649,188.264 389.184,189.728C391.762,191.216 393.736,192.764 395.108,194.372C396.438,195.956 397.207,197.552 397.415,199.16C397.581,200.744 397.166,202.28 396.168,203.768C395.212,205.232 393.653,206.588 391.491,207.836ZM387.064,205.28C389.766,203.72 391.138,201.968 391.18,200.024C391.221,198.08 389.538,196.124 386.129,194.156L381.515,191.492C378.106,189.524 374.718,188.552 371.351,188.576C367.984,188.6 364.949,189.392 362.247,190.952C359.545,192.512 358.174,194.264 358.132,196.208C358.09,198.152 359.774,200.108 363.183,202.076L367.797,204.74C371.206,206.708 374.593,207.68 377.961,207.656C381.328,207.632 384.362,206.84 387.064,205.28ZM428.814,179.376L428.565,179.52C430.602,182.952 429.459,185.916 425.136,188.412C423.14,189.564 420.937,190.38 418.526,190.86C416.115,191.34 413.6,191.496 410.981,191.328C408.404,191.136 405.764,190.62 403.062,189.78C400.402,188.916 397.783,187.74 395.206,186.252C392.628,184.764 390.592,183.252 389.095,181.716C387.64,180.156 386.746,178.632 386.414,177.144C386.123,175.632 386.393,174.18 387.224,172.788C388.056,171.396 389.469,170.124 391.465,168.972C393.709,167.676 396.12,166.86 398.698,166.524C401.275,166.14 403.998,166.296 406.866,166.992L407.115,166.848L401.878,163.824L406.866,160.944L451.511,186.72L446.523,189.6L428.814,179.376ZM422.018,185.028C423.14,184.38 424.055,183.684 424.761,182.94C425.51,182.172 425.988,181.416 426.196,180.672C426.362,179.904 426.258,179.172 425.884,178.476C425.51,177.732 424.803,177.06 423.764,176.46L411.792,169.548C410.919,169.044 409.88,168.708 408.674,168.54C407.469,168.324 406.222,168.276 404.933,168.396C403.644,168.516 402.335,168.792 401.005,169.224C399.674,169.608 398.448,170.124 397.326,170.772C394.499,172.404 393.169,174.204 393.335,176.172C393.46,178.116 394.956,179.916 397.825,181.572L403.312,184.74C406.18,186.396 409.319,187.272 412.727,187.368C416.094,187.44 419.191,186.66 422.018,185.028ZM464.236,158.925L463.987,159.069C464.403,159.693 464.735,160.365 464.985,161.085C465.234,161.757 465.296,162.465 465.172,163.209C465.005,163.929 464.59,164.673 463.925,165.441C463.259,166.209 462.262,166.977 460.932,167.745C457.606,169.665 453.906,170.577 449.833,170.481C445.717,170.361 441.706,169.173 437.798,166.917L417.159,155.001L422.148,152.121L441.914,163.533C447.692,166.869 453.033,167.121 457.939,164.289C458.936,163.713 459.768,163.089 460.433,162.417C461.139,161.721 461.597,161.025 461.805,160.329C462.054,159.609 462.012,158.913 461.68,158.241C461.347,157.521 460.641,156.849 459.56,156.225L437.299,143.373L442.288,140.493L474.462,159.069L469.474,161.949L464.236,158.925ZM447.86,128.564C446.779,129.188 445.74,129.5 444.742,129.5C443.744,129.452 442.83,129.188 441.998,128.708L441.188,128.24C440.356,127.76 439.92,127.244 439.878,126.692C439.837,126.092 440.356,125.48 441.437,124.856C442.518,124.232 443.557,123.944 444.555,123.992C445.553,123.992 446.467,124.232 447.299,124.712L448.109,125.18C448.94,125.66 449.377,126.2 449.419,126.8C449.46,127.352 448.94,127.94 447.86,128.564ZM452.91,134.36L457.899,131.48L490.073,150.056L485.085,152.936L452.91,134.36ZM513.581,137.348C511.419,138.596 509.05,139.508 506.472,140.084C503.895,140.66 501.235,140.9 498.491,140.804C495.747,140.66 493.004,140.204 490.26,139.436C487.475,138.644 484.794,137.504 482.217,136.016C479.681,134.552 477.727,133.016 476.355,131.408C474.984,129.8 474.194,128.216 473.986,126.656C473.778,125.048 474.173,123.5 475.171,122.012C476.168,120.524 477.748,119.156 479.91,117.908C482.071,116.66 484.42,115.76 486.956,115.208C489.533,114.632 492.214,114.404 494.999,114.524C497.743,114.62 500.507,115.064 503.292,115.856C506.077,116.648 508.738,117.776 511.274,119.24C513.851,120.728 515.825,122.276 517.197,123.884C518.527,125.468 519.296,127.064 519.504,128.672C519.671,130.256 519.255,131.792 518.257,133.28C517.301,134.744 515.742,136.1 513.581,137.348ZM509.154,134.792C511.856,133.232 513.227,131.48 513.269,129.536C513.31,127.592 511.627,125.636 508.218,123.668L503.604,121.004C500.195,119.036 496.807,118.064 493.44,118.088C490.073,118.112 487.039,118.904 484.337,120.464C481.635,122.024 480.263,123.776 480.221,125.72C480.18,127.664 481.863,129.62 485.272,131.588L489.886,134.252C493.295,136.22 496.683,137.192 500.05,137.168C503.417,137.144 506.452,136.352 509.154,134.792ZM434.471,270.11L434.221,270.254C436.258,273.686 435.115,276.65 430.792,279.146C428.797,280.298 426.593,281.114 424.182,281.594C421.771,282.074 419.256,282.23 416.638,282.062C414.06,281.87 411.421,281.354 408.719,280.514C406.058,279.65 403.439,278.474 400.862,276.986C398.285,275.498 396.248,273.986 394.751,272.45C393.296,270.89 392.403,269.366 392.07,267.878C391.779,266.366 392.049,264.914 392.881,263.522C393.712,262.13 395.125,260.858 397.121,259.706C399.366,258.41 401.777,257.594 404.354,257.258C406.931,256.874 409.654,257.03 412.522,257.726L412.772,257.582L393.567,246.494L398.555,243.614L444.697,270.254L439.708,273.134L434.471,270.11ZM427.674,275.762C428.797,275.114 429.711,274.418 430.418,273.674C431.166,272.906 431.644,272.15 431.852,271.406C432.018,270.638 431.914,269.906 431.54,269.21C431.166,268.466 430.459,267.794 429.42,267.194L417.448,260.282C416.575,259.778 415.536,259.442 414.33,259.274C413.125,259.058 411.878,259.01 410.589,259.13C409.301,259.25 407.991,259.526 406.661,259.958C405.331,260.342 404.104,260.858 402.982,261.506C400.155,263.138 398.825,264.938 398.991,266.906C399.116,268.85 400.613,270.65 403.481,272.306L408.968,275.474C411.836,277.13 414.975,278.006 418.383,278.102C421.751,278.174 424.847,277.394 427.674,275.762ZM468.147,257.579C465.943,258.851 463.553,259.775 460.976,260.351C458.44,260.903 455.801,261.131 453.057,261.035C450.313,260.891 447.57,260.435 444.826,259.667C442.083,258.851 439.422,257.699 436.845,256.211C434.309,254.747 432.335,253.223 430.921,251.639C429.55,250.031 428.76,248.447 428.552,246.887C428.344,245.279 428.718,243.743 429.674,242.279C430.672,240.791 432.272,239.411 434.476,238.139C436.637,236.891 438.965,236.003 441.459,235.475C443.953,234.947 446.51,234.743 449.129,234.863C451.706,234.959 454.263,235.379 456.798,236.123C459.376,236.843 461.807,237.863 464.094,239.183L466.463,240.551L443.33,253.907L444.826,254.771C446.198,255.563 447.695,256.187 449.316,256.643C450.937,257.051 452.579,257.279 454.242,257.327C455.946,257.351 457.63,257.171 459.292,256.787C460.997,256.379 462.597,255.743 464.094,254.879C466.131,253.703 467.419,252.407 467.96,250.991C468.542,249.551 468.355,248.075 467.398,246.563L473.509,245.987C474.673,247.859 474.839,249.827 474.008,251.891C473.135,253.931 471.181,255.827 468.147,257.579ZM438.653,240.551C437.282,241.343 436.284,242.207 435.66,243.143C434.995,244.055 434.683,245.003 434.725,245.987C434.808,246.947 435.224,247.907 435.972,248.867C436.679,249.803 437.739,250.679 439.152,251.495L439.589,251.747L457.359,241.487L456.674,241.091C453.805,239.435 450.729,238.571 447.445,238.499C444.161,238.379 441.231,239.063 438.653,240.551ZM409.21,384.742L392.001,379.846L374.417,389.998L382.897,399.934L377.597,402.994L349.288,369.082L355.96,365.23L414.698,381.574L409.21,384.742ZM357.519,369.946L357.207,370.126L371.05,386.614L386.077,377.938L357.519,369.946ZM421.408,377.7L389.234,359.124L394.222,356.244L400.146,359.664L400.457,359.484C399.501,358.26 399.169,356.868 399.46,355.308C399.751,353.748 401.206,352.212 403.825,350.7L405.758,349.584L410.746,352.464L407.815,354.156C405.113,355.716 403.513,357.24 403.014,358.728C402.515,360.168 403.035,361.332 404.573,362.22L426.397,374.82L421.408,377.7ZM456.72,358.177C454.475,359.473 452.064,360.409 449.487,360.985C446.909,361.561 444.27,361.789 441.568,361.669C438.907,361.525 436.205,361.045 433.462,360.229C430.76,359.389 428.12,358.225 425.543,356.737C422.965,355.249 420.949,353.725 419.494,352.165C418.081,350.581 417.25,349.021 417,347.485C416.792,345.925 417.187,344.401 418.185,342.913C419.183,341.425 420.804,340.033 423.049,338.737C426.249,336.889 429.513,335.821 432.838,335.533C436.164,335.197 439.427,335.401 442.628,336.145L440.57,339.781C438.325,339.157 436.081,338.965 433.836,339.205C431.591,339.445 429.471,340.141 427.476,341.293C425.979,342.157 424.919,343.057 424.296,343.993C423.631,344.905 423.36,345.829 423.485,346.765C423.568,347.677 424.025,348.589 424.857,349.501C425.647,350.389 426.748,351.241 428.162,352.057L433.649,355.225C436.475,356.857 439.552,357.769 442.877,357.961C446.203,358.105 449.341,357.325 452.293,355.621C456.325,353.293 457.364,350.533 455.41,347.341L461.459,346.657C462.747,348.601 463.038,350.569 462.331,352.561C461.666,354.529 459.796,356.401 456.72,358.177ZM429.217,319.911L434.206,317.031L453.41,328.119L453.66,327.975C452.621,326.463 452.267,324.987 452.6,323.547C452.974,322.083 454.367,320.655 456.778,319.263C460.103,317.343 463.803,316.455 467.877,316.599C471.95,316.695 475.941,317.871 479.849,320.127L500.488,332.043L495.499,334.923L475.733,323.511C469.955,320.175 464.634,319.911 459.771,322.719C458.773,323.295 457.921,323.931 457.214,324.627C456.549,325.299 456.092,325.995 455.842,326.715C455.593,327.435 455.634,328.155 455.967,328.875C456.3,329.547 456.985,330.183 458.025,330.783L480.347,343.671L475.359,346.551L429.217,319.911ZM473.573,301.718C472.492,302.342 471.453,302.654 470.456,302.654C469.458,302.606 468.543,302.342 467.712,301.862L466.901,301.394C466.07,300.914 465.633,300.398 465.592,299.846C465.55,299.246 466.07,298.634 467.151,298.01C468.232,297.386 469.271,297.098 470.268,297.146C471.266,297.146 472.181,297.386 473.012,297.866L473.823,298.334C474.654,298.814 475.09,299.354 475.132,299.954C475.174,300.506 474.654,301.094 473.573,301.718ZM478.624,307.514L483.612,304.634L515.787,323.21L510.798,326.09L478.624,307.514ZM533.495,312.986L490.035,300.926L495.023,298.046L516.597,304.022L531.063,308.342L531.375,308.162L523.893,299.81L513.667,287.282L518.468,284.51L539.294,309.638L533.495,312.986ZM557.077,299.372L524.902,280.796L529.89,277.916L562.065,296.492L557.077,299.372ZM523.593,276.584L518.854,277.592L513.554,268.412L520.288,267.044L523.593,276.584ZM583.078,285.224C580.085,286.952 577.009,288.08 573.85,288.608C570.691,289.088 567.427,289.196 564.06,288.932L564.746,285.224C567.573,285.416 570.192,285.32 572.603,284.936C574.972,284.528 577.175,283.736 579.212,282.56C581.332,281.336 582.517,280.124 582.766,278.924C583.057,277.7 582.372,276.608 580.709,275.648C579.462,274.928 577.986,274.556 576.282,274.532C574.577,274.46 572.499,274.94 570.046,275.972L567.116,277.232C565.411,277.976 563.728,278.588 562.065,279.068C560.361,279.524 558.677,279.824 557.014,279.968C555.352,280.064 553.71,279.956 552.088,279.644C550.509,279.308 548.971,278.708 547.474,277.844C545.895,276.932 544.814,275.972 544.232,274.964C543.608,273.932 543.4,272.9 543.608,271.868C543.858,270.812 544.502,269.768 545.541,268.736C546.539,267.68 547.848,266.684 549.47,265.748C552.088,264.236 554.728,263.24 557.388,262.76C560.09,262.256 562.917,262.088 565.869,262.256L565.557,265.892C563.852,265.724 561.919,265.808 559.758,266.144C557.555,266.456 555.414,267.212 553.335,268.412C551.257,269.612 550.135,270.788 549.968,271.94C549.802,273.044 550.488,274.04 552.026,274.928C553.606,275.84 555.268,276.2 557.014,276.008C558.802,275.792 560.859,275.204 563.187,274.244L566.056,273.02C570.171,271.268 573.746,270.404 576.78,270.428C579.773,270.428 582.496,271.136 584.949,272.552C588.067,274.352 589.459,276.38 589.127,278.636C588.794,280.892 586.778,283.088 583.078,285.224ZM609.733,268.971C607.987,269.979 606.178,270.471 604.308,270.447C602.437,270.375 600.712,269.883 599.132,268.971L576.623,255.975L571.323,259.035L566.958,256.515L569.951,254.787C571.032,254.163 571.551,253.623 571.51,253.167C571.468,252.663 570.907,252.099 569.826,251.475L563.84,248.019L568.33,245.427L577.246,250.575L584.292,246.507L588.657,249.027L581.611,253.095L605.056,266.631L611.603,262.851L615.968,265.371L609.733,268.971ZM587.259,236.082C586.179,236.706 585.139,237.018 584.142,237.018C583.144,236.97 582.229,236.706 581.398,236.226L580.587,235.758C579.756,235.278 579.32,234.762 579.278,234.21C579.236,233.61 579.756,232.998 580.837,232.374C581.918,231.75 582.957,231.462 583.955,231.51C584.952,231.51 585.867,231.75 586.698,232.23L587.509,232.698C588.34,233.178 588.777,233.718 588.818,234.318C588.86,234.87 588.34,235.458 587.259,236.082ZM592.31,241.878L597.298,238.998L629.473,257.574L624.485,260.454L592.31,241.878ZM652.793,244.974C650.548,246.27 648.137,247.206 645.56,247.782C642.983,248.358 640.343,248.586 637.641,248.466C634.981,248.322 632.279,247.842 629.535,247.026C626.833,246.186 624.194,245.022 621.616,243.534C619.039,242.046 617.023,240.522 615.568,238.962C614.155,237.378 613.323,235.818 613.074,234.282C612.866,232.722 613.261,231.198 614.259,229.71C615.256,228.222 616.877,226.83 619.122,225.534C622.323,223.686 625.586,222.618 628.912,222.33C632.237,221.994 635.5,222.198 638.701,222.942L636.644,226.578C634.399,225.954 632.154,225.762 629.909,226.002C627.665,226.242 625.545,226.938 623.549,228.09C622.053,228.954 620.993,229.854 620.369,230.79C619.704,231.702 619.434,232.626 619.559,233.562C619.642,234.474 620.099,235.386 620.93,236.298C621.72,237.186 622.822,238.038 624.235,238.854L629.722,242.022C632.549,243.654 635.625,244.566 638.951,244.758C642.276,244.902 645.415,244.122 648.366,242.418C652.398,240.09 653.438,237.33 651.484,234.138L657.532,233.454C658.821,235.398 659.112,237.366 658.405,239.358C657.74,241.326 655.869,243.198 652.793,244.974ZM694.815,219.848C692.945,220.928 691.095,221.42 689.266,221.324C687.478,221.204 685.732,220.772 684.028,220.028L683.716,220.208C685.005,221.768 685.338,223.304 684.714,224.816C684.09,226.328 682.656,227.732 680.412,229.028C677.003,230.996 673.47,232.028 669.811,232.124C666.195,232.196 662.89,231.368 659.897,229.64C656.863,227.888 655.636,225.908 656.218,223.7C656.842,221.468 659.502,218.996 664.2,216.284L670.56,212.612L667.38,210.776C665.093,209.456 662.724,208.808 660.271,208.832C657.819,208.856 655.304,209.612 652.726,211.1C650.773,212.228 649.567,213.428 649.11,214.7C648.694,215.948 648.777,217.244 649.359,218.588L643.56,218.696C642.688,217.184 642.604,215.528 643.311,213.728C643.976,211.904 645.764,210.152 648.673,208.472C652.581,206.216 656.572,205.016 660.645,204.872C664.719,204.728 668.46,205.64 671.869,207.608L689.578,217.832L693.256,215.708L697.621,218.228L694.815,219.848ZM676.982,226.112C678.229,225.392 679.227,224.648 679.975,223.88C680.723,223.112 681.201,222.356 681.409,221.612C681.617,220.868 681.576,220.172 681.285,219.524C680.994,218.876 680.432,218.312 679.601,217.832L674.301,214.772L667.691,218.588C664.823,220.244 663.14,221.696 662.641,222.944C662.183,224.168 662.745,225.236 664.324,226.148L665.634,226.904C667.213,227.816 669.001,228.2 670.996,228.056C673.033,227.888 675.028,227.24 676.982,226.112Z" style="fill:rgb(229,229,229);fill-rule:nonzero;"/>
        </g>
        <g transform="matrix(3.60844,2.08333,-9.17938e-08,4.16667,5307.63,1512.17)">
            <rect x="0" y="0" width="500" height="500" style="fill:rgb(141,153,174);"/>
        </g>
        <g transform="matrix(4.16667,0,0,4.16667,5307.63,470.507)">
            <path d="M42.766,593.691L39.371,580.195L25.695,572.299L22.3,581.875L18.178,579.495L30.011,547.239L35.2,550.235L47.034,596.155L42.766,593.691ZM32.63,553.119L32.387,552.979L26.665,568.715L38.353,575.463L32.63,553.119ZM52.253,599.168L52.253,570.272L56.133,572.512L56.133,577.832L56.375,577.972C56.828,576.852 57.636,576.087 58.8,575.676C59.964,575.266 61.565,575.648 63.602,576.824L65.105,577.692L65.105,582.172L62.826,580.856C60.724,579.643 59.075,579.158 57.879,579.4C56.715,579.624 56.133,580.427 56.133,581.808L56.133,601.408L52.253,599.168ZM79.135,615.361C77.39,614.353 75.822,613.093 74.431,611.581C73.041,610.069 71.861,608.38 70.891,606.513C69.953,604.665 69.226,602.658 68.709,600.493C68.224,598.346 67.981,596.116 67.981,593.801C67.981,591.486 68.224,589.536 68.709,587.949C69.226,586.381 69.953,585.214 70.891,584.449C71.861,583.702 73.041,583.376 74.431,583.469C75.822,583.562 77.39,584.113 79.135,585.121C81.625,586.558 83.613,588.341 85.101,590.469C86.62,592.578 87.752,594.856 88.496,597.301L85.246,597.329C84.794,595.574 84.05,593.988 83.015,592.569C81.981,591.15 80.687,589.993 79.135,589.097C77.972,588.425 76.953,588.061 76.08,588.005C75.207,587.912 74.48,588.089 73.898,588.537C73.316,588.948 72.879,589.61 72.588,590.525C72.297,591.402 72.152,592.476 72.152,593.745L72.152,598.673C72.152,601.212 72.734,603.638 73.898,605.953C75.094,608.249 76.84,610.06 79.135,611.385C82.272,613.196 84.535,612.822 85.925,610.265L88.738,614.073C87.93,615.697 86.717,616.658 85.101,616.957C83.516,617.274 81.528,616.742 79.135,615.361ZM94.215,581.955L98.095,584.195L98.095,601.443L98.289,601.555C98.903,600.267 99.76,599.455 100.859,599.119C101.991,598.802 103.494,599.184 105.369,600.267C107.956,601.76 109.993,603.907 111.48,606.707C112.999,609.488 113.759,612.634 113.759,616.143L113.759,634.679L109.879,632.439L109.879,614.687C109.879,609.498 107.988,605.811 104.205,603.627C103.429,603.179 102.669,602.852 101.926,602.647C101.215,602.46 100.568,602.423 99.986,602.535C99.404,602.647 98.935,602.955 98.58,603.459C98.256,603.944 98.095,604.654 98.095,605.587L98.095,625.635L94.215,623.395L94.215,581.955ZM123.719,604.757C122.878,604.272 122.264,603.693 121.876,603.021C121.52,602.33 121.342,601.612 121.342,600.865L121.342,600.137C121.342,599.39 121.52,598.896 121.876,598.653C122.264,598.392 122.878,598.504 123.719,598.989C124.559,599.474 125.157,600.062 125.513,600.753C125.901,601.425 126.095,602.134 126.095,602.881L126.095,603.609C126.095,604.356 125.901,604.86 125.513,605.121C125.157,605.364 124.559,605.242 123.719,604.757ZM121.779,610.413L125.659,612.653L125.659,641.549L121.779,639.309L121.779,610.413ZM139.432,649.501L130.654,615.537L134.534,617.777L138.898,634.633L141.614,646.057L141.857,646.197L144.573,637.909L149.034,626.149L152.769,628.305L143.942,652.105L139.432,649.501ZM166.851,666.003C165.17,665.033 163.634,663.791 162.244,662.279C160.854,660.767 159.657,659.069 158.655,657.183C157.685,655.279 156.925,653.254 156.376,651.107C155.826,648.923 155.551,646.674 155.551,644.359C155.551,642.082 155.826,640.169 156.376,638.619C156.925,637.07 157.685,635.922 158.655,635.175C159.657,634.41 160.854,634.074 162.244,634.167C163.634,634.261 165.17,634.793 166.851,635.763C168.532,636.734 170.052,637.966 171.41,639.459C172.8,640.971 173.996,642.689 174.999,644.611C176.001,646.497 176.777,648.531 177.326,650.715C177.876,652.899 178.151,655.13 178.151,657.407C178.151,659.722 177.876,661.654 177.326,663.203C176.777,664.715 176.001,665.854 174.999,666.619C173.996,667.347 172.8,667.665 171.41,667.571C170.052,667.497 168.532,666.974 166.851,666.003ZM166.851,662.027C168.953,663.241 170.666,663.483 171.992,662.755C173.317,662.027 173.98,660.133 173.98,657.071L173.98,652.927C173.98,649.866 173.317,647.206 171.992,644.947C170.666,642.689 168.953,640.953 166.851,639.739C164.749,638.526 163.036,638.283 161.71,639.011C160.385,639.739 159.722,641.634 159.722,644.695L159.722,648.839C159.722,651.901 160.385,654.561 161.71,656.819C163.036,659.078 164.749,660.814 166.851,662.027ZM192.049,680.551C189.721,679.207 187.765,677.574 186.181,675.651C184.629,673.71 183.287,671.554 182.155,669.183L184.92,668.203C185.89,670.182 186.973,671.909 188.169,673.383C189.365,674.821 190.756,675.997 192.34,676.911C193.989,677.863 195.266,678.19 196.171,677.891C197.109,677.611 197.578,676.725 197.578,675.231C197.578,674.111 197.254,672.973 196.608,671.815C195.993,670.639 194.862,669.426 193.213,668.175L191.224,666.691C190.06,665.833 188.994,664.937 188.024,664.003C187.054,663.033 186.197,662.015 185.453,660.951C184.742,659.869 184.176,658.721 183.756,657.507C183.368,656.313 183.174,655.043 183.174,653.699C183.174,652.281 183.4,651.179 183.853,650.395C184.305,649.574 184.92,649.033 185.696,648.771C186.504,648.529 187.458,648.557 188.557,648.855C189.656,649.117 190.836,649.611 192.097,650.339C194.134,651.515 195.832,652.906 197.19,654.511C198.58,656.135 199.792,657.974 200.827,660.027L198.257,661.231C197.707,660.018 196.899,658.749 195.832,657.423C194.765,656.061 193.423,654.913 191.806,653.979C190.19,653.046 188.961,652.747 188.121,653.083C187.312,653.401 186.908,654.25 186.908,655.631C186.908,657.05 187.312,658.31 188.121,659.411C188.961,660.531 190.157,661.689 191.709,662.883L193.649,664.339C196.43,666.43 198.402,668.502 199.566,670.555C200.73,672.571 201.312,674.681 201.312,676.883C201.312,679.683 200.487,681.41 198.838,682.063C197.19,682.717 194.926,682.213 192.049,680.551ZM235.048,675.809L238.88,678.021L227.677,707.169C227.386,707.86 227.095,708.401 226.804,708.793C226.513,709.223 226.157,709.484 225.737,709.577C225.316,709.671 224.783,709.605 224.136,709.381C223.522,709.176 222.762,708.812 221.857,708.289L219.869,707.141L219.869,703.221L223.797,705.489L225.688,700.421L216.328,665.001L220.208,667.241L226.222,690.369L227.386,695.745L227.628,695.885L228.986,691.965L235.048,675.809ZM26.713,657.423C25.355,656.639 24.321,655.612 23.609,654.343C22.93,653.055 22.591,651.702 22.591,650.283L22.591,630.067L18.469,627.687L18.469,623.767L20.797,625.111C21.637,625.596 22.203,625.736 22.494,625.531C22.817,625.307 22.979,624.71 22.979,623.739L22.979,618.363L26.471,620.379L26.471,628.387L31.951,631.551L31.951,635.471L26.471,632.307L26.471,653.363L31.563,656.303L31.563,660.223L26.713,657.423ZM47.406,670.042C45.693,669.053 44.141,667.802 42.75,666.29C41.392,664.797 40.212,663.107 39.21,661.222C38.24,659.318 37.48,657.293 36.931,655.146C36.413,652.981 36.155,650.741 36.155,648.426C36.155,646.149 36.413,644.226 36.931,642.658C37.48,641.109 38.24,639.961 39.21,639.214C40.212,638.449 41.392,638.103 42.75,638.178C44.141,638.271 45.693,638.813 47.406,639.802C49.087,640.773 50.591,641.995 51.916,643.47C53.242,644.945 54.374,646.587 55.311,648.398C56.249,650.171 56.96,652.057 57.445,654.054C57.962,656.07 58.221,658.105 58.221,660.158L58.221,662.286L40.228,651.898L40.228,653.242C40.228,654.474 40.39,655.725 40.713,656.994C41.069,658.245 41.554,659.439 42.168,660.578C42.815,661.735 43.591,662.799 44.496,663.77C45.434,664.759 46.485,665.59 47.649,666.262C49.233,667.177 50.607,667.541 51.771,667.354C52.967,667.186 53.889,666.486 54.535,665.254L57.3,669.146C56.491,670.658 55.23,671.535 53.517,671.778C51.803,671.983 49.766,671.405 47.406,670.042ZM47.406,643.554C46.339,642.938 45.369,642.602 44.496,642.546C43.623,642.453 42.863,642.611 42.217,643.022C41.603,643.451 41.118,644.105 40.762,644.982C40.406,645.822 40.228,646.877 40.228,648.146L40.228,648.538L54.05,656.518L54.05,655.902C54.05,653.326 53.436,650.918 52.207,648.678C51.011,646.419 49.411,644.711 47.406,643.554ZM73.926,685.353C72.18,684.345 70.612,683.085 69.222,681.573C67.831,680.061 66.651,678.372 65.681,676.505C64.744,674.657 64.016,672.65 63.499,670.485C63.014,668.338 62.771,666.108 62.771,663.793C62.771,661.478 63.014,659.528 63.499,657.941C64.016,656.373 64.744,655.206 65.681,654.441C66.651,653.694 67.831,653.368 69.222,653.461C70.612,653.554 72.18,654.105 73.926,655.113C76.415,656.55 78.404,658.333 79.891,660.461C81.411,662.57 82.542,664.848 83.286,667.293L80.037,667.321C79.584,665.566 78.84,663.98 77.806,662.561C76.771,661.142 75.478,659.985 73.926,659.089C72.762,658.417 71.743,658.053 70.871,657.997C69.998,657.904 69.27,658.081 68.688,658.529C68.106,658.94 67.67,659.602 67.379,660.517C67.088,661.394 66.942,662.468 66.942,663.737L66.942,668.665C66.942,671.204 67.524,673.63 68.688,675.945C69.884,678.241 71.63,680.052 73.926,681.377C77.062,683.188 79.325,682.814 80.715,680.257L83.528,684.065C82.72,685.689 81.508,686.65 79.891,686.949C78.307,687.266 76.318,686.734 73.926,685.353ZM89.005,693.387L89.005,664.491L92.885,666.731L92.885,671.435L93.079,671.547C93.693,670.259 94.55,669.447 95.649,669.111C96.781,668.794 98.284,669.176 100.159,670.259C102.746,671.752 104.783,673.899 106.27,676.699C107.79,679.48 108.55,682.626 108.55,686.135L108.55,704.671L104.67,702.431L104.67,684.679C104.67,679.49 102.778,675.803 98.996,673.619C98.22,673.171 97.46,672.844 96.716,672.639C96.005,672.452 95.358,672.415 94.776,672.527C94.194,672.639 93.726,672.947 93.37,673.451C93.046,673.936 92.885,674.646 92.885,675.579L92.885,695.627L89.005,693.387ZM126.026,715.433C124.345,714.463 122.809,713.221 121.419,711.709C120.029,710.197 118.832,708.499 117.83,706.613C116.86,704.709 116.1,702.684 115.551,700.537C115.001,698.353 114.726,696.104 114.726,693.789C114.726,691.512 115.001,689.599 115.551,688.049C116.1,686.5 116.86,685.352 117.83,684.605C118.832,683.84 120.029,683.504 121.419,683.597C122.809,683.691 124.345,684.223 126.026,685.193C127.707,686.164 129.227,687.396 130.585,688.889C131.975,690.401 133.171,692.119 134.174,694.041C135.176,695.927 135.952,697.961 136.501,700.145C137.051,702.329 137.326,704.56 137.326,706.837C137.326,709.152 137.051,711.084 136.501,712.633C135.952,714.145 135.176,715.284 134.174,716.049C133.171,716.777 131.975,717.095 130.585,717.001C129.227,716.927 127.707,716.404 126.026,715.433ZM126.026,711.457C128.128,712.671 129.841,712.913 131.167,712.185C132.492,711.457 133.155,709.563 133.155,706.501L133.155,702.357C133.155,699.296 132.492,696.636 131.167,694.377C129.841,692.119 128.128,690.383 126.026,689.169C123.924,687.956 122.211,687.713 120.885,688.441C119.56,689.169 118.897,691.064 118.897,694.125L118.897,698.269C118.897,701.331 119.56,703.991 120.885,706.249C122.211,708.508 123.924,710.244 126.026,711.457ZM147.829,727.349C146.471,726.565 145.437,725.538 144.725,724.269C144.046,722.981 143.707,721.665 143.707,720.321L143.707,683.529L147.587,685.769L147.587,723.289L151.272,725.417L151.272,729.337L147.829,727.349ZM166.377,738.73C164.696,737.759 163.16,736.518 161.77,735.006C160.38,733.494 159.184,731.795 158.181,729.91C157.211,728.006 156.452,725.981 155.902,723.834C155.352,721.65 155.078,719.401 155.078,717.086C155.078,714.809 155.352,712.895 155.902,711.346C156.452,709.797 157.211,708.649 158.181,707.902C159.184,707.137 160.38,706.801 161.77,706.894C163.16,706.987 164.696,707.519 166.377,708.49C168.059,709.461 169.578,710.693 170.936,712.186C172.326,713.698 173.523,715.415 174.525,717.338C175.527,719.223 176.303,721.258 176.853,723.442C177.402,725.626 177.677,727.857 177.677,730.134C177.677,732.449 177.402,734.381 176.853,735.93C176.303,737.442 175.527,738.581 174.525,739.346C173.523,740.074 172.326,740.391 170.936,740.298C169.578,740.223 168.059,739.701 166.377,738.73ZM166.377,734.754C168.479,735.967 170.193,736.21 171.518,735.482C172.844,734.754 173.507,732.859 173.507,729.798L173.507,725.654C173.507,722.593 172.844,719.933 171.518,717.674C170.193,715.415 168.479,713.679 166.377,712.466C164.276,711.253 162.562,711.01 161.237,711.738C159.911,712.466 159.248,714.361 159.248,717.422L159.248,721.566C159.248,724.627 159.911,727.287 161.237,729.546C162.562,731.805 164.276,733.541 166.377,734.754ZM205.155,763.638C205.155,766.625 204.136,768.221 202.099,768.426C200.095,768.687 197.072,767.651 193.03,765.318C189.118,763.059 186.305,760.819 184.592,758.598C182.878,756.377 182.021,754.127 182.021,751.85C182.021,750.282 182.377,749.255 183.088,748.77C183.799,748.322 184.769,748.247 185.998,748.546L185.998,747.93C184.511,746.25 183.767,744.477 183.767,742.61C183.767,741.154 184.171,740.286 184.98,740.006C185.788,739.689 186.822,739.707 188.083,740.062L188.083,739.838C186.596,738.158 185.432,736.31 184.592,734.294C183.783,732.297 183.379,730.29 183.379,728.274C183.379,726.818 183.605,725.605 184.058,724.634C184.511,723.663 185.141,722.982 185.95,722.59C186.79,722.179 187.776,722.058 188.908,722.226C190.072,722.413 191.365,722.917 192.788,723.738C194.566,724.765 196.15,726.053 197.54,727.602L197.54,727.098C197.54,725.978 197.767,725.194 198.219,724.746C198.672,724.261 199.416,724.317 200.45,724.914L204.185,727.07L204.185,730.99L199.432,728.246L199.432,730.094C200.337,731.513 201.032,732.997 201.517,734.546C202.035,736.077 202.293,737.626 202.293,739.194C202.293,740.65 202.067,741.863 201.614,742.834C201.162,743.805 200.515,744.495 199.674,744.906C198.866,745.298 197.88,745.401 196.716,745.214C195.552,745.027 194.259,744.523 192.836,743.702C192.028,743.235 191.22,742.675 190.411,742.022C189.571,741.798 188.811,741.751 188.132,741.882C187.453,741.975 187.113,742.47 187.113,743.366C187.113,744.225 187.469,745.009 188.18,745.718C188.892,746.427 189.813,747.109 190.945,747.762L196.279,750.842C199.383,752.634 201.63,754.622 203.021,756.806C204.443,758.971 205.155,761.249 205.155,763.638ZM201.517,761.874C201.517,760.717 201.129,759.559 200.353,758.402C199.61,757.301 198.268,756.19 196.328,755.07L187.986,750.254C186.435,750.179 185.659,751.038 185.659,752.83C185.659,754.099 186.063,755.415 186.871,756.778C187.712,758.159 189.118,759.419 191.09,760.558L194.679,762.63C196.845,763.881 198.527,764.459 199.723,764.366C200.919,764.273 201.517,763.442 201.517,761.874ZM192.836,740.118C194.485,741.07 195.795,741.378 196.764,741.042C197.734,740.669 198.219,739.53 198.219,737.626L198.219,736.058C198.219,734.154 197.734,732.474 196.764,731.018C195.795,729.525 194.485,728.302 192.836,727.35C191.187,726.398 189.878,726.109 188.908,726.482C187.938,726.818 187.453,727.938 187.453,729.842L187.453,731.41C187.453,733.314 187.938,735.013 188.908,736.506C189.878,737.962 191.187,739.166 192.836,740.118ZM209.68,763.059L209.68,734.163L213.56,736.403L213.56,765.299L209.68,763.059ZM212.008,731.643L209.486,728.843L213.609,721.703L217.149,725.707L212.008,731.643ZM239.991,780.559C238.536,779.719 237.485,778.664 236.839,777.395C236.225,776.144 235.837,774.8 235.675,773.363L235.432,773.223C234.883,774.698 233.978,775.519 232.717,775.687C231.456,775.855 229.952,775.435 228.206,774.427C225.555,772.896 223.486,770.918 221.999,768.491C220.544,766.083 219.816,763.535 219.816,760.847C219.816,758.122 220.673,756.526 222.387,756.059C224.133,755.611 226.832,756.442 230.486,758.551L235.432,761.407L235.432,758.551C235.432,756.498 234.947,754.65 233.978,753.007C233.008,751.364 231.52,749.964 229.516,748.807C227.996,747.93 226.719,747.584 225.684,747.771C224.682,747.976 223.842,748.536 223.163,749.451L220.835,745.587C221.514,744.411 222.597,743.711 224.084,743.487C225.571,743.226 227.447,743.748 229.71,745.055C232.749,746.81 235.109,749.031 236.79,751.719C238.472,754.407 239.312,757.282 239.312,760.343L239.312,776.247L242.174,777.899L242.174,781.819L239.991,780.559ZM228.837,770.983C229.807,771.543 230.696,771.926 231.504,772.131C232.312,772.336 233.008,772.364 233.59,772.215C234.172,772.066 234.624,771.767 234.947,771.319C235.271,770.871 235.432,770.274 235.432,769.527L235.432,764.767L230.292,761.799C228.061,760.511 226.428,759.942 225.393,760.091C224.391,760.259 223.89,761.052 223.89,762.471L223.89,763.647C223.89,765.066 224.327,766.419 225.199,767.707C226.105,769.014 227.317,770.106 228.837,770.983ZM255.228,790.028C252.9,788.684 250.944,787.051 249.36,785.128C247.808,783.187 246.466,781.031 245.335,778.66L248.099,777.68C249.069,779.659 250.152,781.385 251.348,782.86C252.545,784.297 253.935,785.473 255.519,786.388C257.168,787.34 258.445,787.667 259.35,787.368C260.288,787.088 260.757,786.201 260.757,784.708C260.757,783.588 260.433,782.449 259.787,781.292C259.173,780.116 258.041,778.903 256.392,777.652L254.404,776.168C253.24,775.309 252.173,774.413 251.203,773.48C250.233,772.509 249.376,771.492 248.632,770.428C247.921,769.345 247.355,768.197 246.935,766.984C246.547,765.789 246.353,764.52 246.353,763.176C246.353,761.757 246.579,760.656 247.032,759.872C247.485,759.051 248.099,758.509 248.875,758.248C249.683,758.005 250.637,758.033 251.736,758.332C252.836,758.593 254.016,759.088 255.277,759.816C257.313,760.992 259.011,762.383 260.369,763.988C261.759,765.612 262.972,767.451 264.006,769.504L261.436,770.708C260.886,769.495 260.078,768.225 259.011,766.9C257.944,765.537 256.602,764.389 254.986,763.456C253.369,762.523 252.14,762.224 251.3,762.56C250.492,762.877 250.087,763.727 250.087,765.108C250.087,766.527 250.492,767.787 251.3,768.888C252.14,770.008 253.337,771.165 254.889,772.36L256.829,773.816C259.609,775.907 261.581,777.979 262.745,780.032C263.909,782.048 264.491,784.157 264.491,786.36C264.491,789.16 263.667,790.887 262.018,791.54C260.369,792.193 258.106,791.689 255.228,790.028ZM37.189,731.767L36.995,731.655C35.475,734.362 33.034,734.744 29.672,732.803C28.12,731.907 26.713,730.74 25.452,729.303C24.191,727.866 23.108,726.232 22.203,724.403C21.33,722.592 20.651,720.614 20.166,718.467C19.713,716.339 19.487,714.118 19.487,711.803C19.487,709.488 19.713,707.528 20.166,705.923C20.651,704.336 21.33,703.142 22.203,702.339C23.108,701.555 24.191,701.172 25.452,701.191C26.713,701.21 28.12,701.667 29.672,702.563C31.417,703.571 32.905,704.878 34.133,706.483C35.394,708.07 36.348,709.964 36.995,712.167L37.189,712.279L37.189,695.031L41.068,697.271L41.068,738.711L37.189,736.471L37.189,731.767ZM30.738,729.387C31.611,729.891 32.436,730.236 33.212,730.423C34.02,730.628 34.715,730.656 35.297,730.507C35.879,730.32 36.332,729.966 36.655,729.443C37.011,728.902 37.189,728.164 37.189,727.231L37.189,716.479C37.189,715.695 37.011,714.864 36.655,713.987C36.332,713.091 35.879,712.232 35.297,711.411C34.715,710.59 34.02,709.815 33.212,709.087C32.436,708.34 31.611,707.715 30.738,707.211C28.54,705.942 26.81,705.746 25.549,706.623C24.288,707.463 23.658,709.171 23.658,711.747L23.658,716.675C23.658,719.251 24.288,721.706 25.549,724.039C26.81,726.335 28.54,728.118 30.738,729.387ZM51.257,708.921C50.416,708.436 49.802,707.857 49.414,707.185C49.058,706.494 48.88,705.776 48.88,705.029L48.88,704.301C48.88,703.554 49.058,703.06 49.414,702.817C49.802,702.556 50.416,702.668 51.257,703.153C52.097,703.638 52.695,704.226 53.051,704.917C53.439,705.589 53.633,706.298 53.633,707.045L53.633,707.773C53.633,708.52 53.439,709.024 53.051,709.285C52.695,709.528 52.097,709.406 51.257,708.921ZM49.317,714.577L53.197,716.817L53.197,745.713L49.317,743.473L49.317,714.577ZM68.958,755.485C66.63,754.141 64.674,752.508 63.09,750.585C61.538,748.644 60.196,746.488 59.065,744.117L61.829,743.137C62.799,745.116 63.882,746.842 65.078,748.317C66.275,749.754 67.665,750.93 69.249,751.845C70.898,752.797 72.175,753.124 73.081,752.825C74.018,752.545 74.487,751.658 74.487,750.165C74.487,749.045 74.164,747.906 73.517,746.749C72.903,745.573 71.771,744.36 70.122,743.109L68.134,741.625C66.97,740.766 65.903,739.87 64.933,738.937C63.963,737.966 63.106,736.949 62.363,735.885C61.651,734.802 61.086,733.654 60.665,732.441C60.277,731.246 60.083,729.977 60.083,728.633C60.083,727.214 60.31,726.113 60.762,725.329C61.215,724.508 61.829,723.966 62.605,723.705C63.413,723.462 64.367,723.49 65.466,723.789C66.566,724.05 67.746,724.545 69.007,725.273C71.044,726.449 72.741,727.84 74.099,729.445C75.489,731.069 76.702,732.908 77.736,734.961L75.166,736.165C74.616,734.952 73.808,733.682 72.741,732.357C71.674,730.994 70.332,729.846 68.716,728.913C67.099,727.98 65.871,727.681 65.03,728.017C64.222,728.334 63.818,729.184 63.818,730.565C63.818,731.984 64.222,733.244 65.03,734.345C65.871,735.465 67.067,736.622 68.619,737.817L70.559,739.273C73.339,741.364 75.311,743.436 76.475,745.489C77.639,747.505 78.221,749.614 78.221,751.817C78.221,754.617 77.397,756.344 75.748,756.997C74.099,757.65 71.836,757.146 68.958,755.485ZM85.074,764.118L85.074,735.222L88.954,737.462L88.954,742.782L89.196,742.922C89.649,741.802 90.457,741.036 91.621,740.626C92.785,740.215 94.386,740.598 96.423,741.774L97.926,742.642L97.926,747.122L95.647,745.806C93.545,744.592 91.896,744.107 90.7,744.35C89.536,744.574 88.954,745.376 88.954,746.758L88.954,766.358L85.074,764.118ZM118.304,778.599L118.11,778.487C117.851,779.009 117.528,779.495 117.14,779.943C116.784,780.372 116.332,780.689 115.782,780.895C115.232,781.063 114.57,781.072 113.794,780.923C113.018,780.773 112.112,780.4 111.078,779.803C108.491,778.309 106.438,776.172 104.919,773.391C103.399,770.572 102.639,767.408 102.639,763.899L102.639,745.363L106.519,747.603L106.519,765.355C106.519,770.544 108.427,774.24 112.242,776.443C113.018,776.891 113.761,777.208 114.473,777.395C115.216,777.6 115.863,777.637 116.413,777.507C116.995,777.395 117.447,777.096 117.77,776.611C118.126,776.107 118.304,775.369 118.304,774.399L118.304,754.407L122.184,756.647L122.184,785.543L118.304,783.303L118.304,778.599ZM130.446,761.417L134.326,763.657L134.326,768.361L134.52,768.473C135.166,767.017 136.104,766.214 137.332,766.065C138.593,765.897 140.097,766.317 141.843,767.325C143.395,768.221 144.801,769.388 146.062,770.825C147.323,772.262 148.39,773.886 149.263,775.697C150.168,777.526 150.847,779.505 151.3,781.633C151.785,783.78 152.027,786.01 152.027,788.325C152.027,790.64 151.785,792.59 151.3,794.177C150.847,795.782 150.168,796.977 149.263,797.761C148.39,798.564 147.323,798.956 146.062,798.937C144.801,798.918 143.395,798.461 141.843,797.565C138.448,795.605 136.007,792.404 134.52,787.961L134.326,787.849L134.326,803.753L130.446,801.513L130.446,761.417ZM140.776,792.917C142.974,794.186 144.704,794.401 145.965,793.561C147.226,792.684 147.856,790.957 147.856,788.381L147.856,783.453C147.856,780.877 147.226,778.441 145.965,776.145C144.704,773.812 142.974,772.01 140.776,770.741C139.903,770.237 139.062,769.901 138.254,769.733C137.478,769.546 136.799,769.528 136.217,769.677C135.635,769.826 135.166,770.153 134.811,770.657C134.487,771.142 134.326,771.777 134.326,772.561L134.326,783.313C134.326,784.246 134.487,785.18 134.811,786.113C135.166,787.028 135.635,787.914 136.217,788.773C136.799,789.594 137.478,790.36 138.254,791.069C139.062,791.797 139.903,792.413 140.776,792.917ZM163.823,809.583C162.465,808.799 161.43,807.772 160.719,806.503C160.04,805.215 159.7,803.862 159.7,802.443L159.7,782.227L155.578,779.847L155.578,775.927L157.906,777.271C158.747,777.756 159.312,777.896 159.603,777.691C159.927,777.467 160.088,776.87 160.088,775.899L160.088,770.523L163.58,772.539L163.58,780.547L169.06,783.711L169.06,787.631L163.58,784.467L163.58,805.523L168.672,808.463L168.672,812.383L163.823,809.583ZM177.236,781.655C176.396,781.17 175.781,780.591 175.393,779.919C175.038,779.229 174.86,778.51 174.86,777.763L174.86,777.035C174.86,776.289 175.038,775.794 175.393,775.551C175.781,775.29 176.396,775.402 177.236,775.887C178.077,776.373 178.675,776.961 179.031,777.651C179.419,778.323 179.613,779.033 179.613,779.779L179.613,780.507C179.613,781.254 179.419,781.758 179.031,782.019C178.675,782.262 178.077,782.141 177.236,781.655ZM175.296,787.311L179.176,789.551L179.176,818.447L175.296,816.207L175.296,787.311ZM192.949,826.399L184.171,792.435L188.051,794.675L192.416,811.531L195.132,822.955L195.374,823.095L198.09,814.807L202.552,803.047L206.286,805.203L197.46,829.003L192.949,826.399ZM229.051,847.243C227.596,846.403 226.545,845.348 225.899,844.079C225.284,842.828 224.896,841.484 224.735,840.047L224.492,839.907C223.942,841.381 223.037,842.203 221.776,842.371C220.515,842.539 219.012,842.119 217.266,841.111C214.615,839.58 212.546,837.601 211.058,835.175C209.603,832.767 208.876,830.219 208.876,827.531C208.876,824.805 209.733,823.209 211.446,822.743C213.192,822.295 215.892,823.125 219.545,825.235L224.492,828.091L224.492,825.235C224.492,823.181 224.007,821.333 223.037,819.691C222.067,818.048 220.58,816.648 218.575,815.491C217.056,814.613 215.779,814.268 214.744,814.455C213.742,814.66 212.901,815.22 212.222,816.135L209.894,812.271C210.573,811.095 211.656,810.395 213.144,810.171C214.631,809.909 216.506,810.432 218.769,811.739C221.809,813.493 224.169,815.715 225.85,818.403C227.531,821.091 228.372,823.965 228.372,827.027L228.372,842.931L231.233,844.583L231.233,848.503L229.051,847.243ZM217.896,837.667C218.866,838.227 219.756,838.609 220.564,838.815C221.372,839.02 222.067,839.048 222.649,838.899C223.231,838.749 223.684,838.451 224.007,838.003C224.33,837.555 224.492,836.957 224.492,836.211L224.492,831.451L219.351,828.483C217.12,827.195 215.488,826.625 214.453,826.775C213.451,826.943 212.95,827.736 212.95,829.155L212.95,830.331C212.95,831.749 213.386,833.103 214.259,834.391C215.164,835.697 216.377,836.789 217.896,837.667ZM244.288,856.712C241.96,855.368 240.004,853.734 238.42,851.812C236.868,849.87 235.526,847.714 234.394,845.344L237.159,844.364C238.129,846.342 239.212,848.069 240.408,849.544C241.604,850.981 242.994,852.157 244.579,853.072C246.228,854.024 247.505,854.35 248.41,854.052C249.348,853.772 249.816,852.885 249.816,851.392C249.816,850.272 249.493,849.133 248.847,847.976C248.232,846.8 247.101,845.586 245.452,844.336L243.463,842.852C242.299,841.993 241.232,841.097 240.262,840.164C239.293,839.193 238.436,838.176 237.692,837.112C236.981,836.029 236.415,834.881 235.995,833.668C235.607,832.473 235.413,831.204 235.413,829.86C235.413,828.441 235.639,827.34 236.092,826.556C236.544,825.734 237.159,825.193 237.935,824.932C238.743,824.689 239.697,824.717 240.796,825.016C241.895,825.277 243.075,825.772 244.336,826.5C246.373,827.676 248.071,829.066 249.428,830.672C250.819,832.296 252.031,834.134 253.066,836.188L250.495,837.392C249.946,836.178 249.138,834.909 248.071,833.584C247.004,832.221 245.662,831.073 244.045,830.14C242.429,829.206 241.2,828.908 240.359,829.244C239.551,829.561 239.147,830.41 239.147,831.792C239.147,833.21 239.551,834.47 240.359,835.572C241.2,836.692 242.396,837.849 243.948,839.044L245.888,840.5C248.669,842.59 250.641,844.662 251.805,846.716C252.969,848.732 253.551,850.841 253.551,853.044C253.551,855.844 252.726,857.57 251.077,858.224C249.428,858.877 247.165,858.373 244.288,856.712Z" style="fill:white;fill-rule:nonzero;"/>
        </g>
        <g transform="matrix(3.60844,-2.08333,9.17938e-08,4.16667,7111.79,2553.84)">
            <rect x="0" y="0" width="500" height="500" style="fill:rgb(43,45,66);"/>
        </g>
        <g transform="matrix(4.16667,0,0,4.16667,5307.63,470.507)">
            <path d="M461.972,836.185L473.321,829.633C475.422,828.42 477.33,827.729 479.043,827.561C480.757,827.393 482.212,827.785 483.408,828.737C484.637,829.633 485.574,831.126 486.221,833.217C486.868,835.27 487.191,837.921 487.191,841.169C487.191,844.417 486.868,847.46 486.221,850.297C485.574,853.097 484.637,855.673 483.408,858.025C482.212,860.321 480.757,862.374 479.043,864.185C477.33,865.996 475.422,867.508 473.321,868.721L461.972,875.273L461.972,836.185ZM473.321,864.577C474.711,863.774 475.988,862.776 477.152,861.581C478.316,860.349 479.318,858.968 480.159,857.437C480.999,855.906 481.646,854.264 482.099,852.509C482.584,850.698 482.826,848.822 482.826,846.881L482.826,840.497C482.826,838.556 482.584,836.978 482.099,835.765C481.646,834.496 480.999,833.581 480.159,833.021C479.318,832.461 478.316,832.256 477.152,832.405C475.988,832.517 474.711,832.974 473.321,833.777L466.046,837.977L466.046,868.777L473.321,864.577ZM496.061,819.92C495.22,820.405 494.606,820.536 494.218,820.312C493.862,820.032 493.685,819.518 493.685,818.772L493.685,818.044C493.685,817.297 493.862,816.597 494.218,815.944C494.606,815.234 495.22,814.637 496.061,814.152C496.902,813.666 497.5,813.564 497.855,813.844C498.243,814.068 498.437,814.553 498.437,815.3L498.437,816.028C498.437,816.774 498.243,817.502 497.855,818.212C497.5,818.865 496.902,819.434 496.061,819.92ZM494.121,827.816L498.001,825.576L498.001,854.472L494.121,856.712L494.121,827.816ZM524.432,839.212C522.977,840.052 521.926,840.21 521.28,839.688C520.665,839.146 520.277,838.25 520.116,837L519.873,837.14C519.324,839.249 518.418,841.116 517.157,842.74C515.896,844.364 514.393,845.68 512.647,846.688C509.996,848.218 507.927,848.629 506.439,847.92C504.984,847.192 504.257,845.484 504.257,842.796C504.257,840.07 505.114,837.485 506.827,835.04C508.573,832.576 511.273,830.289 514.926,828.18L519.873,825.324L519.873,822.468C519.873,820.414 519.388,819.126 518.418,818.604C517.448,818.081 515.961,818.398 513.956,819.556C512.437,820.433 511.16,821.562 510.125,822.944C509.123,824.306 508.282,825.837 507.603,827.536L505.275,826.36C505.954,824.4 507.038,822.449 508.525,820.508C510.012,818.529 511.887,816.886 514.15,815.58C517.19,813.825 519.55,813.321 521.231,814.068C522.912,814.814 523.753,816.718 523.753,819.78L523.753,835.684L526.614,834.032L526.614,837.952L524.432,839.212ZM513.278,842.516C514.247,841.956 515.137,841.312 515.945,840.584C516.753,839.856 517.448,839.081 518.03,838.26C518.612,837.438 519.065,836.617 519.388,835.796C519.711,834.974 519.873,834.19 519.873,833.444L519.873,828.684L514.732,831.652C512.502,832.94 510.869,834.256 509.834,835.6C508.832,836.925 508.331,838.297 508.331,839.716L508.331,840.892C508.331,842.31 508.767,843.16 509.64,843.44C510.545,843.701 511.758,843.393 513.278,842.516ZM514.732,812.052L512.211,812.164L516.333,800.264L519.873,800.18L514.732,812.052ZM536.274,832.375C534.916,833.159 533.881,833.327 533.17,832.879C532.491,832.375 532.152,831.451 532.152,830.107L532.152,793.315L536.032,791.075L536.032,828.595L539.717,826.467L539.717,830.387L536.274,832.375ZM554.822,822.338C553.141,823.308 551.605,823.84 550.215,823.934C548.825,824.027 547.629,823.71 546.626,822.982C545.656,822.198 544.897,821.05 544.347,819.538C543.797,817.988 543.522,816.056 543.522,813.742C543.522,811.464 543.797,809.234 544.347,807.05C544.897,804.866 545.656,802.84 546.626,800.974C547.629,799.051 548.825,797.334 550.215,795.822C551.605,794.31 553.141,793.068 554.822,792.098C556.504,791.127 558.023,790.604 559.381,790.53C560.771,790.436 561.968,790.772 562.97,791.538C563.972,792.266 564.748,793.404 565.298,794.954C565.847,796.503 566.122,798.416 566.122,800.694C566.122,803.008 565.847,805.258 565.298,807.442C564.748,809.588 563.972,811.623 562.97,813.546C561.968,815.431 560.771,817.13 559.381,818.642C558.023,820.135 556.504,821.367 554.822,822.338ZM554.822,818.362C556.924,817.148 558.637,815.412 559.963,813.154C561.289,810.895 561.951,808.235 561.951,805.174L561.951,801.03C561.951,797.968 561.289,796.074 559.963,795.346C558.637,794.618 556.924,794.86 554.822,796.074C552.721,797.287 551.007,799.023 549.682,801.282C548.356,803.54 547.693,806.2 547.693,809.262L547.693,813.406C547.693,816.467 548.356,818.362 549.682,819.09C551.007,819.818 552.721,819.575 554.822,818.362ZM593.599,802.47C593.599,805.457 592.581,808.229 590.544,810.786C588.54,813.362 585.517,815.817 581.475,818.15C577.563,820.409 574.75,821.417 573.037,821.174C571.323,820.931 570.466,819.671 570.466,817.394C570.466,815.826 570.822,814.389 571.533,813.082C572.244,811.813 573.214,810.618 574.443,809.498L574.443,808.882C572.956,808.919 572.212,808.005 572.212,806.138C572.212,804.682 572.616,803.347 573.425,802.134C574.233,800.883 575.267,799.707 576.528,798.606L576.528,798.382C575.041,798.419 573.877,797.915 573.037,796.87C572.228,795.806 571.824,794.266 571.824,792.25C571.824,790.794 572.05,789.319 572.503,787.826C572.956,786.333 573.586,784.923 574.394,783.598C575.235,782.217 576.221,780.957 577.353,779.818C578.517,778.661 579.81,777.671 581.233,776.85C583.011,775.823 584.595,775.282 585.985,775.226L585.985,774.722C585.985,773.602 586.212,772.557 586.664,771.586C587.117,770.578 587.861,769.775 588.895,769.178L592.63,767.022L592.63,770.942L587.877,773.686L587.877,775.534C588.782,775.907 589.477,776.589 589.962,777.578C590.479,778.511 590.738,779.762 590.738,781.33C590.738,782.786 590.512,784.261 590.059,785.754C589.607,787.247 588.96,788.685 588.119,790.066C587.311,791.391 586.325,792.633 585.161,793.79C583.997,794.947 582.704,795.937 581.281,796.758C580.473,797.225 579.665,797.598 578.856,797.878C578.016,798.625 577.256,799.455 576.577,800.37C575.898,801.247 575.558,802.134 575.558,803.03C575.558,803.889 575.914,804.262 576.625,804.15C577.337,804.038 578.258,803.655 579.39,803.002L584.724,799.922C587.828,798.13 590.075,797.523 591.466,798.102C592.888,798.625 593.599,800.081 593.599,802.47ZM589.962,804.906C589.962,803.749 589.574,803.039 588.798,802.778C588.055,802.535 586.713,802.974 584.773,804.094L576.431,808.91C574.879,810.627 574.103,812.382 574.103,814.174C574.103,815.443 574.508,816.293 575.316,816.722C576.157,817.133 577.563,816.769 579.535,815.63L583.124,813.558C585.29,812.307 586.971,810.945 588.168,809.47C589.364,807.995 589.962,806.474 589.962,804.906ZM581.281,793.174C582.93,792.222 584.239,791.018 585.209,789.562C586.179,788.069 586.664,786.37 586.664,784.466L586.664,782.898C586.664,780.994 586.179,779.874 585.209,779.538C584.239,779.165 582.93,779.454 581.281,780.406C579.632,781.358 578.323,782.581 577.353,784.074C576.383,785.53 575.898,787.21 575.898,789.114L575.898,790.682C575.898,792.586 576.383,793.725 577.353,794.098C578.323,794.434 579.632,794.126 581.281,793.174ZM607.298,792.041C605.617,793.012 604.081,793.544 602.691,793.637C601.301,793.73 600.104,793.413 599.102,792.685C598.132,791.901 597.372,790.753 596.823,789.241C596.273,787.692 595.998,785.76 595.998,783.445C595.998,781.168 596.273,778.937 596.823,776.753C597.372,774.569 598.132,772.544 599.102,770.677C600.104,768.754 601.301,767.037 602.691,765.525C604.081,764.013 605.617,762.772 607.298,761.801C608.979,760.83 610.499,760.308 611.857,760.233C613.247,760.14 614.443,760.476 615.446,761.241C616.448,761.969 617.224,763.108 617.774,764.657C618.323,766.206 618.598,768.12 618.598,770.397C618.598,772.712 618.323,774.961 617.774,777.145C617.224,779.292 616.448,781.326 615.446,783.249C614.443,785.134 613.247,786.833 611.857,788.345C610.499,789.838 608.979,791.07 607.298,792.041ZM607.298,788.065C609.4,786.852 611.113,785.116 612.439,782.857C613.764,780.598 614.427,777.938 614.427,774.877L614.427,770.733C614.427,767.672 613.764,765.777 612.439,765.049C611.113,764.321 609.4,764.564 607.298,765.777C605.197,766.99 603.483,768.726 602.157,770.985C600.832,773.244 600.169,775.904 600.169,778.965L600.169,783.109C600.169,786.17 600.832,788.065 602.157,788.793C603.483,789.521 605.197,789.278 607.298,788.065ZM632.496,777.493C630.168,778.837 628.212,779.462 626.628,779.369C625.076,779.22 623.734,778.613 622.602,777.549L625.367,773.377C626.337,774.236 627.42,774.712 628.616,774.805C629.812,774.861 631.203,774.432 632.787,773.517C634.436,772.565 635.713,771.417 636.618,770.073C637.556,768.71 638.025,767.282 638.025,765.789C638.025,764.669 637.701,763.904 637.055,763.493C636.44,763.026 635.309,763.12 633.66,763.773L631.671,764.585C630.508,765.07 629.441,765.406 628.471,765.593C627.501,765.742 626.644,765.714 625.9,765.509C625.189,765.248 624.623,764.753 624.203,764.025C623.815,763.278 623.621,762.233 623.621,760.889C623.621,759.47 623.847,758.108 624.3,756.801C624.752,755.457 625.367,754.206 626.143,753.049C626.951,751.873 627.905,750.8 629.004,749.829C630.103,748.821 631.283,747.953 632.544,747.225C634.581,746.049 636.279,745.48 637.637,745.517C639.027,745.536 640.239,745.974 641.274,746.833L638.704,751.005C638.154,750.426 637.346,750.09 636.279,749.997C635.212,749.866 633.87,750.268 632.253,751.201C630.637,752.134 629.408,753.254 628.568,754.561C627.759,755.812 627.355,757.128 627.355,758.509C627.355,759.928 627.759,760.721 628.568,760.889C629.408,761.038 630.605,760.814 632.156,760.217L634.096,759.433C636.877,758.313 638.849,758.108 640.013,758.817C641.177,759.489 641.759,760.926 641.759,763.129C641.759,765.929 640.934,768.608 639.286,771.165C637.637,773.722 635.373,775.832 632.496,777.493ZM650.848,759.673C651.883,759.076 652.627,758.964 653.079,759.337C653.564,759.655 653.807,760.299 653.807,761.269L653.807,762.053C653.807,763.584 653.419,765.488 652.643,767.765C651.867,770.08 650.784,772.329 649.393,774.513L646.144,776.389C647.114,774.635 647.89,773.048 648.472,771.629C649.086,770.229 649.523,768.801 649.781,767.345C649.135,767.532 648.65,767.457 648.327,767.121C648.036,766.767 647.89,766.216 647.89,765.469L647.89,764.685C647.89,763.715 648.116,762.8 648.569,761.941C649.054,761.027 649.814,760.271 650.848,759.673ZM682.361,748.703C680.616,749.711 679.048,750.262 677.657,750.355C676.267,750.448 675.087,750.122 674.117,749.375C673.179,748.61 672.452,747.443 671.935,745.875C671.45,744.288 671.207,742.338 671.207,740.023C671.207,737.708 671.45,735.478 671.935,733.331C672.452,731.166 673.179,729.159 674.117,727.311C675.087,725.444 676.267,723.755 677.657,722.243C679.047,720.731 680.616,719.471 682.361,718.463C684.851,717.026 686.839,716.512 688.327,716.923C689.846,717.278 690.978,718.248 691.721,719.835L688.472,723.615C688.02,722.383 687.276,721.655 686.241,721.431C685.207,721.207 683.913,721.543 682.361,722.439C681.198,723.111 680.179,723.923 679.306,724.875C678.433,725.79 677.706,726.807 677.124,727.927C676.542,729.01 676.105,730.176 675.814,731.427C675.523,732.64 675.378,733.882 675.378,735.151L675.378,740.079C675.378,742.618 675.96,744.372 677.124,745.343C678.32,746.258 680.066,746.052 682.361,744.727C685.498,742.916 687.761,739.93 689.151,735.767L691.964,736.327C691.156,738.884 689.943,741.246 688.327,743.411C686.742,745.558 684.754,747.322 682.361,748.703ZM697.441,739.325L697.441,710.429L701.321,708.189L701.321,713.509L701.563,713.369C702.016,711.726 702.824,710.028 703.988,708.273C705.152,706.518 706.752,705.053 708.789,703.877L710.293,703.009L710.293,707.489L708.013,708.805C705.912,710.018 704.263,711.437 703.066,713.061C701.903,714.629 701.321,716.104 701.321,717.485L701.321,737.085L697.441,739.325ZM730.671,715.436L730.477,715.548C730.218,716.369 729.895,717.228 729.507,718.124C729.151,718.964 728.698,719.804 728.149,720.644C727.599,721.446 726.936,722.221 726.16,722.968C725.384,723.714 724.479,724.386 723.444,724.984C720.858,726.477 718.805,726.71 717.285,725.684C715.766,724.62 715.006,722.333 715.006,718.824L715.006,700.288L718.886,698.048L718.886,715.8C718.886,720.989 720.793,722.482 724.608,720.28C725.384,719.832 726.128,719.29 726.839,718.656C727.583,718.002 728.23,717.293 728.779,716.528C729.361,715.744 729.814,714.922 730.137,714.064C730.493,713.149 730.671,712.206 730.671,711.236L730.671,691.244L734.55,689.004L734.55,717.9L730.671,720.14L730.671,715.436ZM752.124,708.426C750.378,709.434 748.81,709.984 747.42,710.078C746.029,710.171 744.849,709.844 743.879,709.098C742.942,708.332 742.214,707.166 741.697,705.598C741.212,704.011 740.969,702.06 740.969,699.746C740.969,697.431 741.212,695.2 741.697,693.054C742.214,690.888 742.942,688.882 743.879,687.034C744.849,685.167 746.029,683.478 747.42,681.966C748.81,680.454 750.378,679.194 752.124,678.186C754.613,676.748 756.602,676.235 758.089,676.646C759.609,677 760.74,677.971 761.484,679.558L758.235,683.338C757.782,682.106 757.038,681.378 756.004,681.154C754.969,680.93 753.676,681.266 752.124,682.162C750.96,682.834 749.942,683.646 749.069,684.598C748.196,685.512 747.468,686.53 746.886,687.65C746.304,688.732 745.868,689.899 745.577,691.15C745.286,692.363 745.14,693.604 745.14,694.874L745.14,699.802C745.14,702.34 745.722,704.095 746.886,705.066C748.082,705.98 749.828,705.775 752.124,704.45C755.26,702.639 757.523,699.652 758.914,695.49L761.726,696.05C760.918,698.607 759.706,700.968 758.089,703.134C756.505,705.28 754.516,707.044 752.124,708.426ZM776.328,694.452C774.614,695.441 773.062,695.982 771.672,696.076C770.314,696.15 769.134,695.824 768.131,695.096C767.162,694.312 766.402,693.164 765.852,691.652C765.335,690.084 765.076,688.142 765.076,685.828C765.076,683.55 765.335,681.329 765.852,679.164C766.402,676.98 767.162,674.954 768.131,673.088C769.134,671.165 770.314,669.457 771.672,667.964C773.062,666.452 774.614,665.201 776.328,664.212C778.009,663.241 779.512,662.728 780.838,662.672C782.163,662.616 783.295,662.952 784.233,663.68C785.17,664.37 785.882,665.434 786.366,666.872C786.884,668.29 787.142,670.026 787.142,672.08L787.142,674.208L769.15,684.596L769.15,685.94C769.15,687.172 769.312,688.236 769.635,689.132C769.991,689.972 770.475,690.606 771.09,691.036C771.736,691.446 772.512,691.614 773.418,691.54C774.355,691.446 775.406,691.064 776.57,690.392C778.154,689.477 779.528,688.254 780.692,686.724C781.889,685.174 782.81,683.41 783.457,681.432L786.221,682.132C785.413,684.577 784.152,686.91 782.438,689.132C780.725,691.316 778.688,693.089 776.328,694.452ZM776.328,667.964C775.261,668.58 774.291,669.364 773.418,670.316C772.545,671.23 771.785,672.266 771.138,673.424C770.524,674.562 770.039,675.776 769.683,677.064C769.328,678.314 769.15,679.574 769.15,680.844L769.15,681.236L782.972,673.256L782.972,672.64C782.972,670.064 782.357,668.365 781.129,667.544C779.932,666.666 778.332,666.806 776.328,667.964ZM801.053,680.177C798.725,681.521 796.769,682.146 795.185,682.053C793.633,681.903 792.291,681.297 791.159,680.233L793.924,676.061C794.894,676.919 795.977,677.395 797.173,677.489C798.369,677.545 799.76,677.115 801.344,676.201C802.993,675.249 804.27,674.101 805.175,672.757C806.113,671.394 806.582,669.966 806.582,668.473C806.582,667.353 806.258,666.587 805.612,666.177C804.997,665.71 803.866,665.803 802.217,666.457L800.228,667.269C799.064,667.754 797.998,668.09 797.028,668.277C796.058,668.426 795.201,668.398 794.457,668.193C793.746,667.931 793.18,667.437 792.76,666.709C792.372,665.962 792.178,664.917 792.178,663.573C792.178,662.154 792.404,660.791 792.857,659.485C793.309,658.141 793.924,656.89 794.7,655.733C795.508,654.557 796.462,653.483 797.561,652.513C798.66,651.505 799.84,650.637 801.101,649.909C803.138,648.733 804.836,648.163 806.194,648.201C807.584,648.219 808.796,648.658 809.831,649.517L807.261,653.689C806.711,653.11 805.903,652.774 804.836,652.681C803.769,652.55 802.427,652.951 800.81,653.885C799.194,654.818 797.965,655.938 797.125,657.245C796.316,658.495 795.912,659.811 795.912,661.193C795.912,662.611 796.316,663.405 797.125,663.573C797.965,663.722 799.161,663.498 800.713,662.901L802.653,662.117C805.434,660.997 807.406,660.791 808.57,661.501C809.734,662.173 810.316,663.61 810.316,665.813C810.316,668.613 809.491,671.291 807.843,673.849C806.194,676.406 803.93,678.515 801.053,680.177ZM844.052,625.783L847.884,623.571L836.681,665.655C836.39,666.682 836.099,667.559 835.808,668.287C835.517,669.052 835.161,669.724 834.741,670.303C834.32,670.882 833.787,671.432 833.14,671.955C832.526,672.459 831.766,672.972 830.861,673.495L828.873,674.643L828.873,670.723L832.801,668.455L834.692,661.203L825.332,636.591L829.212,634.351L835.226,650.535L836.39,654.567L836.632,654.427L837.99,648.939L844.052,625.783ZM594.194,871.934C592.739,872.774 591.689,872.933 591.042,872.41C590.428,871.869 590.04,870.973 589.878,869.722L589.636,869.862C589.086,871.972 588.181,873.838 586.92,875.462C585.659,877.086 584.155,878.402 582.409,879.41C579.758,880.941 577.689,881.352 576.202,880.642C574.747,879.914 574.019,878.206 574.019,875.518C574.019,872.793 574.876,870.208 576.59,867.762C578.336,865.298 581.035,863.012 584.689,860.902L589.636,858.046L589.636,855.19C589.636,853.137 589.151,851.849 588.181,851.326C587.211,850.804 585.723,851.121 583.719,852.278C582.199,853.156 580.922,854.285 579.888,855.666C578.885,857.029 578.045,858.56 577.366,860.258L575.038,859.082C575.717,857.122 576.8,855.172 578.287,853.23C579.774,851.252 581.65,849.609 583.913,848.302C586.952,846.548 589.312,846.044 590.993,846.79C592.675,847.537 593.515,849.441 593.515,852.502L593.515,868.406L596.377,866.754L596.377,870.674L594.194,871.934ZM583.04,875.238C584.01,874.678 584.899,874.034 585.707,873.306C586.516,872.578 587.211,871.804 587.793,870.982C588.375,870.161 588.827,869.34 589.151,868.518C589.474,867.697 589.636,866.913 589.636,866.166L589.636,861.406L584.495,864.374C582.264,865.662 580.631,866.978 579.597,868.322C578.594,869.648 578.093,871.02 578.093,872.438L578.093,873.614C578.093,875.033 578.53,875.882 579.403,876.162C580.308,876.424 581.52,876.116 583.04,875.238ZM601.914,838.581L605.794,836.341L605.794,841.045L605.988,840.933C606.635,838.731 607.572,836.845 608.801,835.277C610.062,833.653 611.565,832.337 613.311,831.329C614.863,830.433 616.269,829.976 617.53,829.957C618.791,829.939 619.858,830.331 620.731,831.133C621.636,831.917 622.315,833.112 622.768,834.717C623.253,836.304 623.495,838.255 623.495,840.569C623.495,842.884 623.253,845.115 622.768,847.261C622.315,849.389 621.636,851.368 620.731,853.197C619.858,855.008 618.791,856.632 617.53,858.069C616.269,859.507 614.863,860.673 613.311,861.569C609.916,863.529 607.475,863.147 605.988,860.421L605.794,860.533L605.794,876.437L601.914,878.677L601.914,838.581ZM612.244,858.153C614.443,856.884 616.172,855.101 617.433,852.805C618.694,850.472 619.325,848.017 619.325,845.441L619.325,840.513C619.325,837.937 618.694,836.229 617.433,835.389C616.172,834.512 614.443,834.708 612.244,835.977C611.371,836.481 610.53,837.116 609.722,837.881C608.946,838.591 608.267,839.356 607.685,840.177C607.103,840.999 606.635,841.867 606.279,842.781C605.956,843.64 605.794,844.461 605.794,845.245L605.794,855.997C605.794,856.931 605.956,857.677 606.279,858.237C606.635,858.741 607.103,859.087 607.685,859.273C608.267,859.423 608.946,859.404 609.722,859.217C610.53,859.012 611.371,858.657 612.244,858.153ZM630.046,851.235L630.046,822.339L633.926,820.099L633.926,825.419L634.169,825.279C634.621,823.637 635.43,821.938 636.594,820.183C637.758,818.429 639.358,816.963 641.395,815.787L642.898,814.919L642.898,819.399L640.619,820.715C638.517,821.929 636.868,823.347 635.672,824.971C634.508,826.539 633.926,828.014 633.926,829.395L633.926,848.995L630.046,851.235ZM657.026,836.331C655.312,837.32 653.76,837.861 652.37,837.955C651.012,838.029 649.832,837.703 648.83,836.975C647.86,836.191 647.1,835.043 646.55,833.531C646.033,831.963 645.774,830.021 645.774,827.707C645.774,825.429 646.033,823.208 646.55,821.043C647.1,818.859 647.86,816.833 648.83,814.967C649.832,813.044 651.012,811.336 652.37,809.843C653.76,808.331 655.312,807.08 657.026,806.091C658.707,805.12 660.21,804.607 661.536,804.551C662.862,804.495 663.993,804.831 664.931,805.559C665.868,806.249 666.58,807.313 667.065,808.751C667.582,810.169 667.841,811.905 667.841,813.959L667.841,816.087L649.848,826.475L649.848,827.819C649.848,829.051 650.01,830.115 650.333,831.011C650.689,831.851 651.174,832.485 651.788,832.915C652.435,833.325 653.211,833.493 654.116,833.419C655.054,833.325 656.104,832.943 657.268,832.271C658.852,831.356 660.227,830.133 661.391,828.603C662.587,827.053 663.508,825.289 664.155,823.311L666.919,824.011C666.111,826.456 664.85,828.789 663.136,831.011C661.423,833.195 659.386,834.968 657.026,836.331ZM657.026,809.843C655.959,810.459 654.989,811.243 654.116,812.195C653.243,813.109 652.483,814.145 651.837,815.303C651.222,816.441 650.737,817.655 650.382,818.943C650.026,820.193 649.848,821.453 649.848,822.723L649.848,823.115L663.67,815.135L663.67,814.519C663.67,811.943 663.056,810.244 661.827,809.423C660.631,808.545 659.03,808.685 657.026,809.843ZM674.234,825.723L674.234,796.827L678.114,794.587L678.114,799.291L678.308,799.179C678.922,797.182 679.779,795.381 680.878,793.775C682.01,792.151 683.513,790.798 685.388,789.715C687.975,788.222 690.012,788.017 691.499,789.099C693.019,790.126 693.778,792.394 693.778,795.903L693.778,814.439L689.899,816.679L689.899,798.927C689.899,793.738 688.007,792.235 684.224,794.419C683.449,794.867 682.689,795.418 681.945,796.071C681.234,796.706 680.587,797.415 680.005,798.199C679.423,798.983 678.954,799.833 678.599,800.747C678.275,801.606 678.114,802.502 678.114,803.435L678.114,823.483L674.234,825.723ZM717.802,795.865L717.608,795.977C716.089,800.439 713.648,803.64 710.285,805.581C708.733,806.477 707.327,806.935 706.066,806.953C704.805,806.972 703.722,806.589 702.816,805.805C701.943,805.003 701.264,803.808 700.78,802.221C700.327,800.616 700.101,798.656 700.101,796.341C700.101,794.027 700.327,791.805 700.78,789.677C701.264,787.531 701.943,785.552 702.816,783.741C703.722,781.912 704.805,780.279 706.066,778.841C707.327,777.404 708.733,776.237 710.285,775.341C712.031,774.333 713.518,773.923 714.747,774.109C716.008,774.24 716.961,775.033 717.608,776.489L717.802,776.377L717.802,759.129L721.682,756.889L721.682,798.329L717.802,800.569L717.802,795.865ZM711.352,800.933C712.225,800.429 713.049,799.823 713.825,799.113C714.634,798.385 715.329,797.611 715.911,796.789C716.493,795.931 716.945,795.053 717.269,794.157C717.624,793.205 717.802,792.263 717.802,791.329L717.802,780.577C717.802,779.793 717.624,779.168 717.269,778.701C716.945,778.179 716.493,777.843 715.911,777.693C715.329,777.544 714.634,777.572 713.825,777.777C713.049,777.927 712.225,778.253 711.352,778.757C709.153,780.027 707.424,781.828 706.163,784.161C704.902,786.457 704.271,788.893 704.271,791.469L704.271,796.397C704.271,798.973 704.902,800.7 706.163,801.577C707.424,802.417 709.153,802.203 711.352,800.933ZM731.87,756.775C731.03,757.261 730.415,757.391 730.027,757.167C729.672,756.887 729.494,756.374 729.494,755.627L729.494,754.899C729.494,754.153 729.672,753.453 730.027,752.799C730.415,752.09 731.03,751.493 731.87,751.007C732.711,750.522 733.309,750.419 733.665,750.699C734.053,750.923 734.247,751.409 734.247,752.155L734.247,752.883C734.247,753.63 734.053,754.358 733.665,755.067C733.309,755.721 732.711,756.29 731.87,756.775ZM729.93,764.671L733.81,762.431L733.81,791.327L729.93,793.567L729.93,764.671ZM739.533,788.023L739.533,784.271L753.742,754.843L739.969,762.795L739.969,758.875L758.447,748.207L758.447,751.567L743.946,781.555L758.835,772.959L758.835,776.879L739.533,788.023ZM782.738,763.079C781.283,763.919 780.232,764.078 779.585,763.555C778.971,763.014 778.583,762.118 778.421,760.867L778.179,761.007C777.629,763.116 776.724,764.983 775.463,766.607C774.202,768.231 772.699,769.547 770.953,770.555C768.301,772.086 766.232,772.496 764.745,771.787C763.29,771.059 762.563,769.351 762.563,766.663C762.563,763.938 763.419,761.352 765.133,758.907C766.879,756.443 769.579,754.156 773.232,752.047L778.179,749.191L778.179,746.335C778.179,744.282 777.694,742.994 776.724,742.471C775.754,741.948 774.267,742.266 772.262,743.423C770.742,744.3 769.465,745.43 768.431,746.811C767.428,748.174 766.588,749.704 765.909,751.403L763.581,750.227C764.26,748.267 765.343,746.316 766.83,744.375C768.318,742.396 770.193,740.754 772.456,739.447C775.495,737.692 777.855,737.188 779.537,737.935C781.218,738.682 782.059,740.586 782.059,743.647L782.059,759.551L784.92,757.899L784.92,761.819L782.738,763.079ZM771.583,766.383C772.553,765.823 773.442,765.179 774.25,764.451C775.059,763.723 775.754,762.948 776.336,762.127C776.918,761.306 777.37,760.484 777.694,759.663C778.017,758.842 778.179,758.058 778.179,757.311L778.179,752.551L773.038,755.519C770.807,756.807 769.174,758.123 768.14,759.467C767.138,760.792 766.636,762.164 766.636,763.583L766.636,764.759C766.636,766.178 767.073,767.027 767.946,767.307C768.851,767.568 770.064,767.26 771.583,766.383ZM790.457,729.726L794.337,727.486L794.337,760.862C794.337,762.878 793.901,764.754 793.028,766.49C792.155,768.226 790.781,769.635 788.905,770.718L786.384,772.174L786.384,768.254L790.457,765.902L790.457,729.726ZM792.397,721.83C791.557,722.315 790.942,722.446 790.554,722.222C790.199,721.942 790.021,721.429 790.021,720.682L790.021,719.954C790.021,719.207 790.199,718.507 790.554,717.854C790.942,717.145 791.557,716.547 792.397,716.062C793.238,715.577 793.836,715.474 794.192,715.754C794.58,715.978 794.774,716.463 794.774,717.21L794.774,717.938C794.774,718.685 794.58,719.413 794.192,720.122C793.836,720.775 793.238,721.345 792.397,721.83ZM811.99,746.862C810.277,747.851 808.725,748.393 807.334,748.486C805.976,748.561 804.796,748.234 803.794,747.506C802.824,746.722 802.064,745.574 801.515,744.062C800.997,742.494 800.739,740.553 800.739,738.238C800.739,735.961 800.997,733.739 801.515,731.574C802.064,729.39 802.824,727.365 803.794,725.498C804.796,723.575 805.976,721.867 807.334,720.374C808.725,718.862 810.277,717.611 811.99,716.622C813.671,715.651 815.175,715.138 816.5,715.082C817.826,715.026 818.958,715.362 819.895,716.09C820.833,716.781 821.544,717.845 822.029,719.282C822.546,720.701 822.805,722.437 822.805,724.49L822.805,726.618L804.813,737.006L804.813,738.35C804.813,739.582 804.974,740.646 805.298,741.542C805.653,742.382 806.138,743.017 806.752,743.446C807.399,743.857 808.175,744.025 809.08,743.95C810.018,743.857 811.069,743.474 812.233,742.802C813.817,741.887 815.191,740.665 816.355,739.134C817.551,737.585 818.473,735.821 819.119,733.842L821.884,734.542C821.075,736.987 819.814,739.321 818.101,741.542C816.387,743.726 814.35,745.499 811.99,746.862ZM811.99,720.374C810.923,720.99 809.953,721.774 809.08,722.726C808.207,723.641 807.448,724.677 806.801,725.834C806.187,726.973 805.702,728.186 805.346,729.474C804.99,730.725 804.813,731.985 804.813,733.254L804.813,733.646L818.634,725.666L818.634,725.05C818.634,722.474 818.02,720.775 816.791,719.954C815.595,719.077 813.995,719.217 811.99,720.374ZM836.716,732.587C834.388,733.931 832.432,734.556 830.847,734.463C829.295,734.313 827.954,733.707 826.822,732.643L829.586,728.471C830.556,729.329 831.639,729.805 832.836,729.899C834.032,729.955 835.422,729.525 837.007,728.611C838.655,727.659 839.933,726.511 840.838,725.167C841.775,723.804 842.244,722.376 842.244,720.883C842.244,719.763 841.921,718.997 841.274,718.587C840.66,718.12 839.528,718.213 837.879,718.867L835.891,719.679C834.727,720.164 833.66,720.5 832.69,720.687C831.72,720.836 830.864,720.808 830.12,720.603C829.409,720.341 828.843,719.847 828.422,719.119C828.034,718.372 827.84,717.327 827.84,715.983C827.84,714.564 828.067,713.201 828.519,711.895C828.972,710.551 829.586,709.3 830.362,708.143C831.171,706.967 832.124,705.893 833.224,704.923C834.323,703.915 835.503,703.047 836.764,702.319C838.801,701.143 840.498,700.573 841.856,700.611C843.247,700.629 844.459,701.068 845.494,701.927L842.923,706.099C842.374,705.52 841.565,705.184 840.498,705.091C839.431,704.96 838.09,705.361 836.473,706.295C834.856,707.228 833.628,708.348 832.787,709.655C831.979,710.905 831.575,712.221 831.575,713.603C831.575,715.021 831.979,715.815 832.787,715.983C833.628,716.132 834.824,715.908 836.376,715.311L838.316,714.527C841.096,713.407 843.069,713.201 844.233,713.911C845.397,714.583 845.979,716.02 845.979,718.223C845.979,721.023 845.154,723.701 843.505,726.259C841.856,728.816 839.593,730.925 836.716,732.587Z" style="fill:white;fill-rule:nonzero;"/>
        </g>
    </g>
</svg>
