<?xml version="1.0" encoding="UTF-8" standalone="no"?>
<!DOCTYPE svg PUBLIC "-//W3C//DTD SVG 1.1//EN" "http://www.w3.org/Graphics/SVG/1.1/DTD/svg11.dtd">
<svg width="100%" height="100%" viewBox="0 0 1919 585" version="1.1" xmlns="http://www.w3.org/2000/svg" xmlns:xlink="http://www.w3.org/1999/xlink" xml:space="preserve" xmlns:serif="http://www.serif.com/" style="fill-rule:evenodd;clip-rule:evenodd;stroke-linejoin:round;stroke-miterlimit:2;">
    <g transform="matrix(1.87842,0,0,1.87842,-5758.94,-4651.36)">
        <g transform="matrix(3.93552,0,0,3.93552,980.512,-6549.47)">
            <path d="M622.715,2317.13L617.625,2317.13L617.625,2314.8L630.568,2314.8L630.568,2317.13L625.412,2317.13L625.412,2330.2L622.715,2330.2L622.715,2317.13Z" style="fill:rgb(4,88,142);fill-rule:nonzero;"/>
        </g>
        <g transform="matrix(3.93552,0,0,3.93552,980.512,-6549.47)">
            <path d="M631.234,2318.77L638.742,2318.77L638.742,2320.88L633.736,2320.88L633.736,2323.28L638.568,2323.28L638.568,2325.39L633.736,2325.39L633.736,2328.08L638.871,2328.08L638.871,2330.2L631.234,2330.2L631.234,2318.77Z" style="fill:rgb(4,88,142);fill-rule:nonzero;"/>
        </g>
        <g transform="matrix(3.93552,0,0,3.93552,980.512,-6549.47)">
            <path d="M651.337,2329.7C650.15,2330.22 649.114,2330.44 647.82,2330.44C643.895,2330.44 641.37,2328.22 641.37,2324.72C641.37,2321.03 644.045,2318.55 648.036,2318.55C649.265,2318.55 650.171,2318.75 651.337,2319.24L651.337,2321.49C650.301,2320.9 649.458,2320.69 648.316,2320.69C645.684,2320.69 644.023,2322.15 644.023,2324.48C644.023,2326.79 645.642,2328.2 648.274,2328.2C649.417,2328.2 650.323,2327.98 651.337,2327.44L651.337,2329.7Z" style="fill:rgb(4,88,142);fill-rule:nonzero;"/>
        </g>
        <g transform="matrix(3.93552,0,0,3.93552,980.512,-6549.47)">
            <path d="M654.419,2318.72L656.446,2318.72C657.287,2318.72 657.545,2318.85 657.935,2319.48L661.86,2325.58C662.314,2326.27 662.572,2326.88 663.026,2328.28C662.767,2326.92 662.702,2326.29 662.702,2325.49L662.702,2318.72L665.032,2318.72L665.032,2330.2L663.005,2330.2C662.163,2330.2 661.904,2330.07 661.516,2329.44L657.59,2323.34C657.137,2322.65 656.878,2322.05 656.424,2320.64C656.684,2321.98 656.749,2322.63 656.749,2323.43L656.749,2330.2L654.419,2330.2L654.419,2318.72Z" style="fill:rgb(4,88,142);fill-rule:nonzero;"/>
        </g>
        <g transform="matrix(3.93552,0,0,3.93552,980.512,-6549.47)">
            <path d="M673.938,2328.32C675.966,2328.32 677.151,2326.92 677.151,2324.48C677.151,2322.07 675.966,2320.67 673.938,2320.67C671.909,2320.67 670.724,2322.07 670.724,2324.48C670.724,2326.92 671.909,2328.32 673.938,2328.32M674.002,2318.53C677.584,2318.53 679.804,2320.77 679.804,2324.4C679.804,2328.11 677.497,2330.46 673.875,2330.46C670.292,2330.46 668.072,2328.2 668.072,2324.59C668.072,2320.86 670.379,2318.53 674.002,2318.53" style="fill:rgb(4,88,142);fill-rule:nonzero;"/>
        </g>
        <g transform="matrix(3.93552,0,0,3.93552,980.512,-6549.47)">
            <path d="M682.845,2318.72L685.346,2318.72L685.346,2328.08L690.48,2328.08L690.48,2330.2L682.845,2330.2L682.845,2318.72Z" style="fill:rgb(4,88,142);fill-rule:nonzero;"/>
        </g>
        <g transform="matrix(3.93552,0,0,3.93552,980.512,-6549.47)">
            <path d="M697.77,2328.32C699.797,2328.32 700.984,2326.92 700.984,2324.48C700.984,2322.07 699.797,2320.67 697.77,2320.67C695.743,2320.67 694.556,2322.07 694.556,2324.48C694.556,2326.92 695.743,2328.32 697.77,2328.32M697.833,2318.53C701.416,2318.53 703.638,2320.77 703.638,2324.4C703.638,2328.11 701.329,2330.46 697.705,2330.46C694.124,2330.46 691.902,2328.2 691.902,2324.59C691.902,2320.86 694.209,2318.53 697.833,2318.53" style="fill:rgb(4,88,142);fill-rule:nonzero;"/>
        </g>
        <g transform="matrix(3.93552,0,0,3.93552,980.512,-6549.47)">
            <path d="M711.4,2324.05L716.361,2324.05L716.361,2329.92C715.175,2330.22 713.816,2330.37 712.5,2330.37C708.337,2330.37 705.9,2328.28 705.9,2324.72C705.9,2320.99 708.575,2318.55 712.694,2318.55C714.01,2318.55 715.088,2318.74 716.34,2319.24L716.34,2321.51C715.175,2320.9 714.27,2320.69 712.997,2320.69C710.213,2320.69 708.552,2322.15 708.552,2324.68C708.552,2326.98 710.042,2328.36 712.566,2328.36C712.997,2328.36 713.407,2328.3 713.86,2328.2L713.86,2326.01L711.4,2326.01L711.4,2324.05Z" style="fill:rgb(4,88,142);fill-rule:nonzero;"/>
        </g>
        <g transform="matrix(3.93552,0,0,3.93552,980.512,-6549.47)">
            <path d="M719.853,2318.72L722.355,2318.72L722.355,2330.2L719.853,2330.2L719.853,2318.72ZM723.154,2312.79L725.396,2313.01L721.407,2317.43L719.68,2317.13L723.154,2312.79Z" style="fill:rgb(4,88,142);fill-rule:nonzero;"/>
        </g>
        <g transform="matrix(3.93552,0,0,3.93552,980.512,-6549.47)">
            <path d="M732.169,2325.24L732.06,2324.85C731.889,2324.33 731.716,2323.88 731.586,2323.47L731.198,2322.35C730.898,2321.49 730.875,2321.46 730.745,2321.1C730.68,2321.27 730.638,2321.4 730.617,2321.44L730.228,2322.39L729.839,2323.45L729.321,2324.81C729.321,2324.81 729.236,2325 729.149,2325.24L732.169,2325.24ZM724.922,2329.72C725.482,2328.17 726.216,2326.32 727.1,2324.18C727.812,2322.47 728.265,2321.42 729.299,2319.11L729.472,2318.72L732.212,2318.72L732.386,2319.13C733.14,2320.93 733.745,2322.45 734.434,2324.27C735.126,2326.12 735.857,2328.17 736.375,2329.66L736.548,2330.2L733.873,2330.2L733.786,2329.92C733.571,2329.27 733.42,2328.78 733.313,2328.45L732.967,2327.44L732.88,2327.2L728.372,2327.2L728.265,2327.48C727.898,2328.45 727.617,2329.21 727.38,2329.92L727.272,2330.2L724.749,2330.2L724.922,2329.72Z" style="fill:rgb(4,88,142);fill-rule:nonzero;"/>
        </g>
        <g transform="matrix(3.93552,0,0,3.93552,980.512,-6549.47)">
            <path d="M738.165,2327.16C739.113,2327.91 740.32,2328.34 741.508,2328.34C742.674,2328.34 743.448,2327.87 743.448,2327.16C743.448,2326.92 743.342,2326.64 743.168,2326.47C742.867,2326.14 742.607,2325.99 741.248,2325.37C740.019,2324.79 739.479,2324.46 739.049,2324.03C738.51,2323.53 738.207,2322.76 738.207,2321.91C738.207,2319.91 739.977,2318.53 742.543,2318.53C743.728,2318.53 744.68,2318.75 745.779,2319.31L745.779,2321.66C744.829,2321.01 743.795,2320.67 742.801,2320.67C741.659,2320.67 740.86,2321.16 740.86,2321.85C740.86,2322.07 740.968,2322.33 741.119,2322.45C741.313,2322.63 741.553,2322.78 741.853,2322.93C742.177,2323.08 742.607,2323.25 743.127,2323.49C744.355,2324.05 744.894,2324.42 745.369,2324.93C745.843,2325.5 746.102,2326.21 746.102,2327.01C746.102,2329.14 744.398,2330.48 741.659,2330.48C740.365,2330.48 739.221,2330.2 738.165,2329.6L738.165,2327.16Z" style="fill:rgb(4,88,142);fill-rule:nonzero;"/>
        </g>
        <g transform="matrix(3.93552,0,0,3.93552,980.512,-6549.47)">
            <path d="M754.943,2325.51C755.3,2325.52 755.488,2325.52 755.691,2325.52C757.037,2325.52 757.698,2325.05 757.698,2324.08C757.698,2323.11 757.069,2322.6 755.829,2322.6C755.64,2322.6 755.386,2322.62 755.113,2322.65L754.943,2322.65L754.943,2325.51ZM752.972,2321.2L753.209,2321.19C754.484,2321.12 755.08,2321.09 755.675,2321.09C757.037,2321.09 757.919,2321.31 758.6,2321.78C759.297,2322.28 759.689,2323.09 759.689,2324.06C759.689,2326.03 758.31,2327.1 755.795,2327.1C755.556,2327.1 755.336,2327.09 754.943,2327.07L754.943,2330.2L752.972,2330.2L752.972,2321.2Z" style="fill:rgb(4,88,142);fill-rule:nonzero;"/>
        </g>
        <g transform="matrix(3.93552,0,0,3.93552,980.512,-6549.47)">
            <path d="M765.707,2326.29L765.624,2325.98C765.486,2325.57 765.352,2325.22 765.248,2324.89L764.944,2324.01C764.705,2323.33 764.687,2323.31 764.586,2323.02C764.535,2323.16 764.502,2323.26 764.484,2323.3L764.178,2324.04L763.872,2324.88L763.463,2325.95C763.463,2325.95 763.396,2326.1 763.328,2326.29L765.707,2326.29ZM759.994,2329.83C760.436,2328.6 761.014,2327.14 761.712,2325.45C762.272,2324.11 762.631,2323.28 763.447,2321.46L763.583,2321.15L765.742,2321.15L765.877,2321.48C766.474,2322.89 766.951,2324.09 767.494,2325.52C768.039,2326.98 768.616,2328.6 769.025,2329.77L769.16,2330.2L767.053,2330.2L766.984,2329.98C766.813,2329.47 766.694,2329.08 766.609,2328.82L766.337,2328.02L766.269,2327.84L762.715,2327.84L762.631,2328.06C762.341,2328.82 762.121,2329.42 761.933,2329.98L761.85,2330.2L759.859,2330.2L759.994,2329.83Z" style="fill:rgb(4,88,142);fill-rule:nonzero;"/>
        </g>
        <g transform="matrix(3.93552,0,0,3.93552,980.512,-6549.47)">
            <path d="M772.986,2325.25L773.138,2325.25C773.36,2325.25 773.53,2325.3 773.683,2325.3C775.078,2325.3 775.707,2324.88 775.707,2323.97C775.707,2323.07 775.093,2322.6 773.886,2322.6C773.597,2322.6 773.377,2322.62 772.986,2322.63L772.986,2325.25ZM771.013,2321.19L771.217,2321.17C772.101,2321.12 773.105,2321.09 773.752,2321.09C775.093,2321.09 775.943,2321.27 776.625,2321.72C777.304,2322.16 777.697,2322.94 777.697,2323.86C777.697,2325.08 777.151,2325.86 775.962,2326.37L776.114,2326.56L776.692,2327.31C777.527,2328.36 778.699,2329.67 779.277,2330.2L776.641,2330.2C776.49,2330.01 776.471,2329.99 776.2,2329.67C775.69,2329.06 775.093,2328.3 774.652,2327.67L774.074,2326.83L773.989,2326.71C773.836,2326.73 773.734,2326.73 773.649,2326.73C773.581,2326.73 773.427,2326.73 773.19,2326.71L772.986,2326.71L772.986,2330.2L771.013,2330.2L771.013,2321.19Z" style="fill:rgb(4,88,142);fill-rule:nonzero;"/>
        </g>
        <g transform="matrix(3.93552,0,0,3.93552,980.512,-6549.47)">
            <path d="M785.926,2326.29L785.841,2325.98C785.706,2325.57 785.569,2325.22 785.467,2324.89L785.161,2324.01C784.923,2323.33 784.906,2323.31 784.805,2323.02C784.753,2323.16 784.718,2323.26 784.702,2323.3L784.397,2324.04L784.089,2324.88L783.681,2325.95C783.681,2325.95 783.614,2326.1 783.547,2326.29L785.926,2326.29ZM780.213,2329.83C780.655,2328.6 781.233,2327.14 781.931,2325.45C782.491,2324.11 782.849,2323.28 783.664,2321.46L783.8,2321.15L785.96,2321.15L786.097,2321.48C786.693,2322.89 787.168,2324.09 787.712,2325.52C788.257,2326.98 788.833,2328.6 789.241,2329.77L789.379,2330.2L787.271,2330.2L787.202,2329.98C787.032,2329.47 786.913,2329.08 786.827,2328.82L786.556,2328.02L786.487,2327.84L782.933,2327.84L782.849,2328.06C782.56,2328.82 782.339,2329.42 782.152,2329.98L782.067,2330.2L780.075,2330.2L780.213,2329.83Z" style="fill:rgb(4,88,142);fill-rule:nonzero;"/>
        </g>
        <g transform="matrix(3.93552,0,0,3.93552,980.512,-6549.47)">
            <path d="M618.565,2342.15L620.539,2342.15L620.539,2349.53L624.586,2349.53L624.586,2351.19L618.565,2351.19L618.565,2342.15Z" style="fill:rgb(4,88,142);fill-rule:nonzero;"/>
        </g>
        <g transform="matrix(3.93552,0,0,3.93552,980.512,-6549.47)">
            <path d="M631.437,2347.28L631.353,2346.97C631.216,2346.57 631.082,2346.21 630.978,2345.89L630.673,2345C630.435,2344.32 630.417,2344.3 630.316,2344.02C630.265,2344.15 630.231,2344.26 630.214,2344.29L629.908,2345.04L629.602,2345.87L629.193,2346.94C629.193,2346.94 629.126,2347.09 629.058,2347.28L631.437,2347.28ZM625.724,2350.82C626.166,2349.6 626.744,2348.13 627.441,2346.45C628.002,2345.1 628.36,2344.27 629.177,2342.45L629.312,2342.15L631.473,2342.15L631.607,2342.47C632.204,2343.88 632.681,2345.09 633.223,2346.51C633.769,2347.98 634.346,2349.6 634.754,2350.77L634.89,2351.19L632.782,2351.19L632.713,2350.97C632.543,2350.46 632.424,2350.07 632.339,2349.82L632.066,2349.02L631.999,2348.83L628.445,2348.83L628.36,2349.05C628.071,2349.82 627.85,2350.41 627.662,2350.97L627.579,2351.19L625.588,2351.19L625.724,2350.82Z" style="fill:rgb(4,88,142);fill-rule:nonzero;"/>
        </g>
        <g transform="matrix(3.93552,0,0,3.93552,980.512,-6549.47)">
            <rect x="640.478" y="2335.79" width="2.695" height="15.404" style="fill:rgb(4,88,142);fill-rule:nonzero;"/>
        </g>
        <g transform="matrix(3.93552,0,0,3.93552,980.512,-6549.47)">
            <path d="M646.904,2339.72L648.931,2339.72C649.772,2339.72 650.032,2339.84 650.42,2340.47L654.346,2346.57C654.8,2347.27 655.059,2347.87 655.512,2349.27C655.253,2347.91 655.187,2347.29 655.187,2346.49L655.187,2339.72L657.517,2339.72L657.517,2351.19L655.49,2351.19C654.648,2351.19 654.39,2351.06 654.001,2350.43L650.075,2344.33C649.623,2343.64 649.364,2343.04 648.911,2341.64C649.17,2342.97 649.234,2343.62 649.234,2344.42L649.234,2351.19L646.904,2351.19L646.904,2339.72Z" style="fill:rgb(4,88,142);fill-rule:nonzero;"/>
        </g>
        <g transform="matrix(3.93552,0,0,3.93552,980.512,-6549.47)">
            <path d="M661.267,2339.72L668.817,2339.72L668.817,2341.83L663.769,2341.83L663.769,2344.48L668.622,2344.48L668.622,2346.6L663.769,2346.6L663.769,2351.19L661.267,2351.19L661.267,2339.72Z" style="fill:rgb(4,88,142);fill-rule:nonzero;"/>
        </g>
        <g transform="matrix(3.93552,0,0,3.93552,980.512,-6549.47)">
            <path d="M676.582,2349.31C678.609,2349.31 679.797,2347.91 679.797,2345.48C679.797,2343.06 678.609,2341.66 676.582,2341.66C674.555,2341.66 673.367,2343.06 673.367,2345.48C673.367,2347.91 674.555,2349.31 676.582,2349.31M676.646,2339.52C680.227,2339.52 682.45,2341.76 682.45,2345.39C682.45,2349.1 680.141,2351.45 676.516,2351.45C672.936,2351.45 670.713,2349.19 670.713,2345.59C670.713,2341.85 673.021,2339.52 676.646,2339.52" style="fill:rgb(4,88,142);fill-rule:nonzero;"/>
        </g>
        <g transform="matrix(3.93552,0,0,3.93552,980.512,-6549.47)">
            <path d="M687.99,2344.91L688.183,2344.91C688.465,2344.91 688.68,2344.98 688.876,2344.98C690.644,2344.98 691.441,2344.44 691.441,2343.3C691.441,2342.15 690.665,2341.55 689.134,2341.55C688.767,2341.55 688.486,2341.57 687.99,2341.59L687.99,2344.91ZM685.488,2339.76L685.748,2339.74C686.869,2339.67 688.142,2339.63 688.963,2339.63C690.665,2339.63 691.744,2339.87 692.605,2340.43C693.469,2340.99 693.966,2341.98 693.966,2343.14C693.966,2344.7 693.275,2345.69 691.765,2346.34L691.959,2346.57L692.692,2347.52C693.751,2348.86 695.239,2350.52 695.972,2351.19L692.629,2351.19C692.433,2350.95 692.412,2350.93 692.066,2350.52C691.42,2349.75 690.665,2348.77 690.104,2347.98L689.371,2346.92L689.263,2346.77C689.07,2346.79 688.939,2346.79 688.831,2346.79C688.744,2346.79 688.551,2346.79 688.25,2346.77L687.99,2346.77L687.99,2351.19L685.488,2351.19L685.488,2339.76Z" style="fill:rgb(4,88,142);fill-rule:nonzero;"/>
        </g>
        <g transform="matrix(3.93552,0,0,3.93552,980.512,-6549.47)">
            <path d="M697.544,2350.63C697.609,2349.4 697.674,2348.15 697.76,2346.75C697.867,2345.32 697.977,2343.84 698.063,2342.89L698.299,2340.15L698.343,2339.72L700.65,2339.72C701.838,2339.72 701.986,2339.87 702.766,2341.96C703,2342.61 703.453,2343.84 703.779,2344.78C704.447,2346.75 704.619,2347.42 704.771,2348.99C704.92,2347.44 705.093,2346.75 705.761,2344.78C706.043,2343.97 706.495,2342.72 706.775,2341.96C707.554,2339.89 707.704,2339.72 708.89,2339.72L711.09,2339.72L711.135,2340.15L711.371,2342.89C711.457,2343.86 711.609,2345.73 711.717,2347.27C711.781,2348.24 711.824,2349.08 711.889,2350.63L711.91,2351.19L709.408,2351.19L709.408,2350.91C709.388,2350.48 709.365,2349.77 709.322,2348.78C709.256,2347.7 709.235,2346.88 709.193,2346.36L709.04,2343.79L709.04,2343.1C709.04,2342.67 709.063,2342.3 709.127,2341.51L709.085,2341.51C708.848,2342.65 708.89,2342.56 707.984,2344.91C707.531,2346.08 706.627,2348.71 705.935,2350.74L705.784,2351.19L703.563,2351.19L703.412,2350.74L702.852,2349.03C702.742,2348.73 702.656,2348.47 702.419,2347.81C701.901,2346.32 701.6,2345.5 701.385,2344.91C700.478,2342.58 700.521,2342.69 700.284,2341.51L700.239,2341.51C700.305,2342.3 700.326,2342.65 700.326,2343.1C700.326,2343.36 700.326,2343.6 700.305,2343.79L700.154,2346.36C700.09,2347.55 699.982,2349.94 699.959,2350.91L699.959,2351.19L697.523,2351.19L697.544,2350.63Z" style="fill:rgb(4,88,142);fill-rule:nonzero;"/>
        </g>
        <g transform="matrix(3.93552,0,0,3.93552,980.512,-6549.47)">
            <path d="M721.204,2346.23L721.098,2345.84C720.924,2345.33 720.751,2344.87 720.623,2344.46L720.234,2343.34C719.932,2342.48 719.91,2342.46 719.78,2342.09C719.717,2342.26 719.674,2342.39 719.65,2342.43L719.264,2343.38L718.875,2344.44L718.357,2345.8C718.357,2345.8 718.27,2345.99 718.183,2346.23L721.204,2346.23ZM713.955,2350.72C714.516,2349.17 715.25,2347.31 716.135,2345.17C716.848,2343.47 717.3,2342.41 718.336,2340.1L718.509,2339.72L721.248,2339.72L721.419,2340.12C722.175,2341.92 722.779,2343.45 723.471,2345.26C724.159,2347.11 724.892,2349.17 725.412,2350.65L725.583,2351.19L722.908,2351.19L722.822,2350.91C722.605,2350.26 722.457,2349.77 722.348,2349.45L722.004,2348.43L721.917,2348.19L717.408,2348.19L717.3,2348.47C716.934,2349.45 716.652,2350.2 716.416,2350.91L716.308,2351.19L713.784,2351.19L713.955,2350.72Z" style="fill:rgb(4,88,142);fill-rule:nonzero;"/>
        </g>
        <g transform="matrix(3.93552,0,0,3.93552,980.512,-6549.47)">
            <path d="M736.753,2350.7C735.566,2351.22 734.532,2351.43 733.237,2351.43C729.312,2351.43 726.788,2349.21 726.788,2345.71C726.788,2342.02 729.463,2339.54 733.452,2339.54C734.683,2339.54 735.587,2339.74 736.753,2340.24L736.753,2342.48C735.719,2341.9 734.876,2341.68 733.733,2341.68C731.102,2341.68 729.441,2343.14 729.441,2345.48C729.441,2347.78 731.058,2349.19 733.691,2349.19C734.833,2349.19 735.739,2348.97 736.753,2348.43L736.753,2350.7Z" style="fill:rgb(4,88,142);fill-rule:nonzero;"/>
        </g>
        <g transform="matrix(3.93552,0,0,3.93552,980.512,-6549.47)">
            <rect x="739.837" y="2339.72" width="2.502" height="11.477" style="fill:rgb(4,88,142);fill-rule:nonzero;"/>
        </g>
        <g transform="matrix(3.93552,0,0,3.93552,980.512,-6549.47)">
            <path d="M753.252,2333.78L755.495,2334L751.506,2338.42L749.779,2338.14L753.252,2333.78ZM751.246,2349.31C753.272,2349.31 754.459,2347.91 754.459,2345.48C754.459,2343.06 753.272,2341.66 751.246,2341.66C749.218,2341.66 748.031,2343.06 748.031,2345.48C748.031,2347.91 749.218,2349.31 751.246,2349.31M751.311,2339.52C754.892,2339.52 757.113,2341.76 757.113,2345.39C757.113,2349.1 754.806,2351.45 751.181,2351.45C747.601,2351.45 745.378,2349.18 745.378,2345.59C745.378,2341.85 747.688,2339.52 751.311,2339.52" style="fill:rgb(4,88,142);fill-rule:nonzero;"/>
        </g>
        <g transform="matrix(3.93552,0,0,3.93552,980.512,-6549.47)">
            <path d="M760.152,2339.72L762.179,2339.72C763.021,2339.72 763.28,2339.84 763.668,2340.47L767.594,2346.57C768.048,2347.27 768.307,2347.87 768.76,2349.27C768.502,2347.91 768.435,2347.29 768.435,2346.49L768.435,2339.72L770.765,2339.72L770.765,2351.19L768.738,2351.19C767.896,2351.19 767.638,2351.06 767.249,2350.43L763.324,2344.33C762.872,2343.64 762.612,2343.04 762.159,2341.64C762.418,2342.97 762.482,2343.62 762.482,2344.42L762.482,2351.19L760.152,2351.19L760.152,2339.72Z" style="fill:rgb(4,88,142);fill-rule:nonzero;"/>
        </g>
        <g transform="matrix(3.93552,0,0,3.93552,980.512,-6549.47)">
            <path d="M618.565,2363.17L624.484,2363.17L624.484,2364.84L620.539,2364.84L620.539,2366.72L624.347,2366.72L624.347,2368.39L620.539,2368.39L620.539,2370.52L624.586,2370.52L624.586,2372.18L618.565,2372.18L618.565,2363.17Z" style="fill:rgb(4,88,142);fill-rule:nonzero;"/>
        </g>
        <g transform="matrix(3.93552,0,0,3.93552,980.512,-6549.47)">
            <path d="M627.17,2363.14L628.769,2363.14C629.432,2363.14 629.636,2363.24 629.941,2363.73L633.036,2368.54C633.393,2369.09 633.599,2369.56 633.955,2370.67C633.751,2369.6 633.7,2369.11 633.7,2368.47L633.7,2363.14L635.536,2363.14L635.536,2372.18L633.939,2372.18C633.274,2372.18 633.071,2372.08 632.764,2371.59L629.669,2366.78C629.312,2366.23 629.108,2365.76 628.75,2364.65C628.956,2365.7 629.007,2366.22 629.007,2366.84L629.007,2372.18L627.17,2372.18L627.17,2363.14Z" style="fill:rgb(4,88,142);fill-rule:nonzero;"/>
        </g>
        <g transform="matrix(3.93552,0,0,3.93552,980.512,-6549.47)">
            <path d="M655.759,2371.49C654.292,2372.14 652.783,2372.44 650.905,2372.44C648.556,2372.44 646.677,2371.86 645.211,2370.65C643.464,2369.23 642.535,2367.14 642.535,2364.7C642.535,2359.89 646.116,2356.52 651.251,2356.52C652.848,2356.52 654.185,2356.8 655.759,2357.47L655.759,2359.97C654.314,2359.18 653.128,2358.88 651.552,2358.88C647.8,2358.88 645.469,2361.05 645.469,2364.5C645.469,2367.96 647.777,2370.09 651.489,2370.09C653.064,2370.09 654.335,2369.75 655.759,2368.97L655.759,2371.49Z" style="fill:rgb(4,88,142);fill-rule:nonzero;"/>
        </g>
        <g transform="matrix(3.93552,0,0,3.93552,980.512,-6549.47)">
            <rect x="658.798" y="2360.71" width="2.502" height="11.478" style="fill:rgb(4,88,142);fill-rule:nonzero;"/>
        </g>
        <g transform="matrix(3.93552,0,0,3.93552,980.512,-6549.47)">
            <path d="M665.054,2360.75L672.559,2360.75L672.559,2362.86L667.556,2362.86L667.556,2365.26L672.386,2365.26L672.386,2367.37L667.556,2367.37L667.556,2370.07L672.689,2370.07L672.689,2372.18L665.054,2372.18L665.054,2360.75Z" style="fill:rgb(4,88,142);fill-rule:nonzero;"/>
        </g>
        <g transform="matrix(3.93552,0,0,3.93552,980.512,-6549.47)">
            <path d="M675.966,2360.71L677.993,2360.71C678.834,2360.71 679.092,2360.84 679.481,2361.46L683.406,2367.57C683.86,2368.26 684.119,2368.86 684.572,2370.26C684.313,2368.9 684.249,2368.28 684.249,2367.48L684.249,2360.71L686.579,2360.71L686.579,2372.18L684.552,2372.18C683.709,2372.18 683.451,2372.05 683.062,2371.43L679.136,2365.32C678.683,2364.63 678.424,2364.03 677.971,2362.63C678.23,2363.96 678.296,2364.61 678.296,2365.41L678.296,2372.18L675.966,2372.18L675.966,2360.71Z" style="fill:rgb(4,88,142);fill-rule:nonzero;"/>
        </g>
        <g transform="matrix(3.93552,0,0,3.93552,980.512,-6549.47)">
            <path d="M699.519,2371.69C698.332,2372.21 697.296,2372.42 696.001,2372.42C692.078,2372.42 689.552,2370.2 689.552,2366.7C689.552,2363.01 692.227,2360.53 696.219,2360.53C697.448,2360.53 698.355,2360.73 699.519,2361.23L699.519,2363.47C698.483,2362.89 697.642,2362.67 696.499,2362.67C693.867,2362.67 692.207,2364.14 692.207,2366.47C692.207,2368.78 693.824,2370.18 696.455,2370.18C697.6,2370.18 698.505,2369.96 699.519,2369.42L699.519,2371.69Z" style="fill:rgb(4,88,142);fill-rule:nonzero;"/>
        </g>
        <g transform="matrix(3.93552,0,0,3.93552,980.512,-6549.47)">
            <rect x="702.601" y="2360.71" width="2.501" height="11.478" style="fill:rgb(4,88,142);fill-rule:nonzero;"/>
        </g>
        <g transform="matrix(3.93552,0,0,3.93552,980.512,-6549.47)">
            <path d="M714.572,2367.22L714.464,2366.84C714.293,2366.32 714.119,2365.86 713.99,2365.45L713.6,2364.33C713.3,2363.47 713.279,2363.45 713.147,2363.08C713.084,2363.25 713.04,2363.38 713.019,2363.42L712.632,2364.38L712.242,2365.43L711.724,2366.79C711.724,2366.79 711.638,2366.98 711.552,2367.22L714.572,2367.22ZM707.324,2371.71C707.885,2370.16 708.618,2368.3 709.504,2366.16C710.215,2364.46 710.667,2363.4 711.703,2361.1L711.876,2360.71L714.615,2360.71L714.787,2361.12C715.542,2362.91 716.147,2364.44 716.838,2366.25C717.527,2368.11 718.261,2370.16 718.779,2371.64L718.95,2372.18L716.275,2372.18L716.189,2371.9C715.974,2371.26 715.822,2370.76 715.715,2370.44L715.371,2369.42L715.284,2369.18L710.775,2369.18L710.667,2369.47C710.3,2370.44 710.019,2371.19 709.784,2371.9L709.676,2372.18L707.151,2372.18L707.324,2371.71Z" style="fill:rgb(4,88,142);fill-rule:nonzero;"/>
        </g>
        <g transform="matrix(3.93552,0,0,3.93552,980.512,-6549.47)">
            <path d="M720.566,2369.14C721.515,2369.9 722.723,2370.33 723.91,2370.33C725.074,2370.33 725.851,2369.85 725.851,2369.14C725.851,2368.91 725.742,2368.62 725.571,2368.45C725.268,2368.13 725.01,2367.98 723.652,2367.35C722.42,2366.77 721.882,2366.45 721.452,2366.01C720.912,2365.52 720.609,2364.74 720.609,2363.9C720.609,2361.89 722.378,2360.51 724.946,2360.51C726.131,2360.51 727.082,2360.73 728.181,2361.29L728.181,2363.64C727.232,2362.99 726.195,2362.65 725.205,2362.65C724.06,2362.65 723.263,2363.14 723.263,2363.84C723.263,2364.05 723.371,2364.31 723.521,2364.44C723.714,2364.61 723.953,2364.76 724.254,2364.91C724.58,2365.06 725.01,2365.24 725.527,2365.48C726.755,2366.04 727.295,2366.4 727.771,2366.92C728.246,2367.48 728.503,2368.19 728.503,2368.99C728.503,2371.13 726.8,2372.47 724.06,2372.47C722.766,2372.47 721.623,2372.18 720.566,2371.58L720.566,2369.14Z" style="fill:rgb(4,88,142);fill-rule:nonzero;"/>
        </g>
        <g transform="matrix(3.93552,0,0,3.93552,980.512,-6549.47)">
            <path d="M603.73,2315.09L591.309,2315.09C590.757,2313.02 589.085,2311.41 586.98,2310.95L586.98,2298.35L603.73,2298.35L603.73,2315.09ZM547.48,2350.5C547.908,2352.63 549.513,2354.33 551.585,2354.91L551.585,2367.24L534.835,2367.24L534.835,2350.5L547.48,2350.5ZM540.507,2311.12C541.198,2313.23 543.07,2314.8 545.341,2315.05L550.597,2344.18C549.329,2344.8 548.323,2345.88 547.789,2347.19L534.835,2347.19L534.835,2311.12L540.507,2311.12ZM544.298,2303.81C542.412,2304.38 540.943,2305.9 540.425,2307.81L534.835,2307.81L534.835,2298.35L544.298,2298.35L544.298,2303.81ZM548.077,2308.03C548.313,2308.4 548.451,2308.85 548.451,2309.32C548.451,2309.37 548.447,2309.41 548.445,2309.45C548.418,2309.96 548.234,2310.44 547.939,2310.82C547.807,2310.99 547.654,2311.14 547.482,2311.28C547.094,2311.57 546.617,2311.76 546.097,2311.78C546.061,2311.78 546.025,2311.78 545.988,2311.78C545.509,2311.78 545.063,2311.65 544.684,2311.41C544.549,2311.32 544.424,2311.23 544.308,2311.12C543.828,2310.67 543.525,2310.03 543.525,2309.32C543.525,2308.75 543.721,2308.23 544.046,2307.81C544.124,2307.72 544.208,2307.62 544.298,2307.54C544.74,2307.12 545.334,2306.86 545.988,2306.86C546.607,2306.86 547.173,2307.09 547.606,2307.47C547.789,2307.63 547.947,2307.82 548.077,2308.03M583.673,2311.2C582.339,2311.71 581.248,2312.7 580.603,2313.96L551.722,2308.69C551.466,2306.35 549.808,2304.43 547.606,2303.79L547.606,2298.35L583.673,2298.35L583.673,2311.2ZM587.908,2317.75C587.776,2318 587.601,2318.21 587.397,2318.4C586.959,2318.8 586.378,2319.05 585.741,2319.05C585.695,2319.05 585.65,2319.04 585.603,2319.04C585.317,2319.02 585.043,2318.96 584.792,2318.86C584.529,2318.74 584.292,2318.59 584.084,2318.4C583.927,2318.26 583.789,2318.1 583.673,2317.92L583.673,2317.89L583.653,2317.88C583.433,2317.53 583.3,2317.12 583.283,2316.68C583.281,2316.65 583.278,2316.62 583.278,2316.58C583.278,2316.09 583.423,2315.64 583.673,2315.25C583.828,2315.01 584.021,2314.8 584.247,2314.63C584.662,2314.31 585.178,2314.12 585.741,2314.12C586.193,2314.12 586.615,2314.24 586.98,2314.46C587.258,2314.62 587.501,2314.84 587.697,2315.09C588.013,2315.51 588.204,2316.02 588.204,2316.58C588.204,2317 588.096,2317.4 587.908,2317.75M590.511,2335C589.928,2335.43 589.431,2335.96 589.043,2336.58L575.047,2332.68C575.029,2331.75 574.792,2330.87 574.38,2330.1L582.962,2321.64C583.788,2322.09 584.734,2322.35 585.741,2322.35C585.837,2322.35 585.93,2322.34 586.025,2322.34L590.511,2335ZM599.448,2337.99C598.737,2335.62 596.533,2333.88 593.921,2333.88C593.822,2333.88 593.725,2333.89 593.626,2333.89L589.142,2321.24C590.1,2320.53 590.833,2319.55 591.214,2318.4L603.73,2318.4L603.73,2337.99L599.448,2337.99ZM597.316,2344.31C598.322,2343.57 599.084,2342.53 599.448,2341.3L603.73,2341.3L603.73,2362.42L597.316,2344.31ZM591.459,2339.65C591.459,2339.23 591.564,2338.84 591.748,2338.49C591.949,2338.11 592.249,2337.8 592.61,2337.57C592.99,2337.33 593.439,2337.18 593.921,2337.18C594.253,2337.18 594.57,2337.25 594.859,2337.37C595.199,2337.51 595.499,2337.73 595.742,2337.99C596.14,2338.43 596.384,2339.01 596.384,2339.65C596.384,2340.08 596.275,2340.48 596.084,2340.83C595.989,2341 595.873,2341.16 595.742,2341.3C595.347,2341.74 594.803,2342.03 594.189,2342.1C594.101,2342.11 594.012,2342.11 593.921,2342.11C593.581,2342.11 593.256,2342.04 592.96,2341.92C592.423,2341.69 591.986,2341.27 591.724,2340.75C591.62,2340.55 591.544,2340.33 591.501,2340.1C591.474,2339.95 591.459,2339.8 591.459,2339.65M581.925,2357.74C581.941,2357.58 581.952,2357.41 581.952,2357.24C581.952,2356.29 581.72,2355.4 581.317,2354.62L591.384,2344.82C592.151,2345.2 593.009,2345.42 593.921,2345.42C594.014,2345.42 594.105,2345.41 594.197,2345.41L600.941,2364.44L581.925,2357.74ZM577.835,2362.76C578.981,2362.42 579.975,2361.73 580.701,2360.82L598.939,2367.24L577.835,2367.24L577.835,2362.76ZM574.058,2358.48C573.843,2358.11 573.718,2357.69 573.718,2357.24C573.718,2356.75 573.861,2356.3 574.104,2355.92C574.279,2355.64 574.503,2355.41 574.768,2355.22C575.168,2354.94 575.656,2354.77 576.181,2354.77C576.255,2354.77 576.328,2354.78 576.398,2354.78C576.718,2354.81 577.021,2354.91 577.293,2355.04C577.896,2355.35 578.355,2355.89 578.545,2356.55C578.607,2356.77 578.642,2356.99 578.643,2357.22C578.643,2357.22 578.644,2357.23 578.644,2357.24C578.644,2357.96 578.331,2358.61 577.835,2359.06C577.61,2359.26 577.347,2359.43 577.059,2359.53C576.786,2359.64 576.49,2359.7 576.181,2359.7C575.544,2359.7 574.966,2359.45 574.527,2359.06C574.343,2358.89 574.185,2358.7 574.058,2358.48M554.892,2354.85C556.072,2354.48 557.082,2353.73 557.795,2352.75L570.414,2357.2C570.414,2357.21 570.412,2357.22 570.412,2357.24C570.412,2359.85 572.148,2362.05 574.527,2362.76L574.527,2367.24L554.892,2367.24L554.892,2354.85ZM551.246,2347.78C551.445,2347.54 551.687,2347.34 551.96,2347.19C552.223,2347.05 552.515,2346.95 552.826,2346.91C552.927,2346.9 553.031,2346.89 553.136,2346.89C553.561,2346.89 553.962,2347 554.312,2347.19C554.384,2347.23 554.456,2347.28 554.525,2347.32C554.657,2347.41 554.78,2347.52 554.892,2347.63C555.109,2347.85 555.285,2348.11 555.407,2348.4C555.469,2348.55 555.517,2348.71 555.55,2348.87C555.582,2349.03 555.599,2349.19 555.599,2349.36C555.599,2350.03 555.33,2350.64 554.892,2351.08C554.721,2351.26 554.525,2351.41 554.308,2351.52C553.959,2351.71 553.56,2351.82 553.136,2351.82C552.548,2351.82 552.009,2351.61 551.585,2351.27C551.328,2351.06 551.113,2350.8 550.957,2350.5C550.776,2350.16 550.673,2349.77 550.673,2349.36C550.673,2348.76 550.888,2348.21 551.246,2347.78M564.214,2330.04C563.767,2330.86 563.513,2331.8 563.513,2332.8C563.513,2333.79 563.763,2334.72 564.204,2335.53L555.597,2344.14C555.058,2343.89 554.474,2343.71 553.859,2343.64L548.596,2314.47C548.634,2314.45 548.671,2314.43 548.709,2314.41L564.214,2330.04ZM572.06,2327.74C571.236,2327.28 570.29,2327.03 569.283,2327.03C568.298,2327.03 567.373,2327.27 566.563,2327.71L551.056,2312.08C551.082,2312.04 551.101,2311.99 551.125,2311.94L580.007,2317.22C580.088,2317.96 580.309,2318.66 580.643,2319.28L572.06,2327.74ZM572.376,2337.66C573.096,2337.2 573.706,2336.59 574.161,2335.87L588.158,2339.76C588.177,2340.79 588.465,2341.75 588.955,2342.58L579.032,2352.22C578.218,2351.76 577.283,2351.49 576.284,2351.47L572.376,2337.66ZM566.82,2332.8C566.82,2332.75 566.824,2332.71 566.826,2332.67C566.891,2331.41 567.909,2330.39 569.173,2330.34C569.209,2330.34 569.246,2330.33 569.283,2330.33C569.329,2330.33 569.375,2330.34 569.419,2330.34C570.322,2330.39 571.095,2330.93 571.481,2331.69C571.634,2331.99 571.726,2332.34 571.742,2332.7C571.742,2332.73 571.746,2332.76 571.746,2332.8C571.746,2333.28 571.606,2333.72 571.37,2334.1C571.172,2334.41 570.908,2334.68 570.595,2334.88C570.214,2335.12 569.765,2335.26 569.283,2335.26C569.242,2335.26 569.204,2335.26 569.164,2335.25C568.814,2335.24 568.484,2335.15 568.187,2335C567.412,2334.61 566.87,2333.83 566.826,2332.91C566.824,2332.88 566.82,2332.84 566.82,2332.8M558.059,2346.36L566.542,2337.88C567.334,2338.3 568.236,2338.55 569.195,2338.56L573.099,2352.36C572.419,2352.8 571.833,2353.36 571.384,2354.03L558.892,2349.63C558.896,2349.54 558.906,2349.45 558.906,2349.36C558.906,2348.26 558.593,2347.23 558.059,2346.36M608.691,2293.39L529.875,2293.39L529.875,2372.2L608.691,2372.2L608.691,2293.39Z" style="fill:rgb(4,88,142);fill-rule:nonzero;"/>
        </g>
    </g>
</svg>
